<?xml version="1.0" encoding="UTF-8"?>
<svg id="Layer_1" xmlns="http://www.w3.org/2000/svg" version="1.1" viewBox="0 0 31.88 32">
  <!-- Generator: Adobe Illustrator 29.5.1, SVG Export Plug-In . SVG Version: 2.1.0 Build 141)  -->
  <path d="M5.29,31.56V2.92L19.44.48c4-.42,7.38,2.49,7.84,6.42-.23,4.9.37,10.18.03,15.04-.21,2.99-1.75,5.32-4.54,6.46l-17.48,3.16ZM8.53,5.75v22.09l12.94-2.35c.97-.21,2.59-1.98,2.59-2.91v-10.11l-9.39,1.62v3.07l6.31-.97v5.42c0,.5-.75.95-1.19,1.08-2.5.74-5.62.83-8.2,1.43v-15.86l8-1.45c1.61.34,1.43,1.55,1.38,2.9l3.07-.49c.42-2.89-.78-5.46-3.93-5.64l-11.32,1.96-.27.21Z"/>
</svg>