<?xml version="1.0" encoding="UTF-8"?>
<svg id="Layer_1" data-name="Layer 1" xmlns="http://www.w3.org/2000/svg" viewBox="0 0 260 487.84">
  <defs>
    <style>
      .cls-1 {
        fill: #fff;
      }
    </style>
  </defs>
  <path d="M237.78,12.67c-2.12-2.58-4.85-4.25-8.19-5.01-1.59-.46-3.26-.84-4.85-1.14-11-1.74-22-3.26-32.99-4.55-2.35-.38-4.63-.61-6.9-.68-4.86-.23-9.71-.46-14.49-.61-6.37-.23-12.67-.38-18.96-.46-3.79-.08-7.58-.15-11.38-.15h-.76c-3.56-.08-7.13-.08-10.69-.08-22.91.08-45.81.83-68.72,2.2-10.16.61-20.1,2.12-29.81,4.63-1.59.38-3.11.76-4.7,1.21,0,7.43,0,14.87.08,22.37v5.01c.08,3.41.08,6.83.08,10.24v.68c.83,1.82,6.07,3.41,15.62,4.93l.91.15c.68.15,1.52.23,2.28.38.61.08,1.21.15,1.82.23,2.81.38,6.07.76,9.56,1.14l4.55.38v.08c1.9.15,3.87.3,5.92.53,1.29.15,2.58.15,3.94.3,1.52.08,3.03.23,4.55.38v.23h3.94c9.4.68,20.1,1.29,32.01,1.9v-.15.15c2.88.15,7.13.3,12.59.46v-7.66c0-.15-.08-.38-.23-.53-.15-.15-.3-.23-.46-.23h18.13v8.34l22.75-1.14c2.88-.23,5.69-.38,8.34-.53,8.04-.53,15.25-.99,21.77-1.52h.08c2.65-.23,5.16-.46,7.66-.61,4.48-.46,8.57-.91,12.21-1.29.46-.08.84-.15,1.29-.15.83-.08,1.67-.23,2.5-.38,1.9-.23,3.72-.46,5.31-.76,2.65-.38,4.93-.83,6.83-1.21.76-.23,1.52-.38,2.2-.61,3.72-.91,5.76-1.97,6.3-3.03l-.08-33.45ZM71.45,49h-.15.15Z"/>
  <path d="M199.02,231.86c-1.29.08-2.5,0-3.49-.3-.46-.91-1.14-1.59-2.05-2.12h-2.65q-.08.08-.15.08c-.23,0-.46.08-.68.15-.3.15-.53.38-.83.61v.46c-.08.08-.15.23-.3.3-.15,0-.3,0-.46.08-.38,0-.68.08-1.06.08l-48.09-2.43h-.15v-19.57l1.52-148.89v-25.8h-18.13c.15,0,.3,14.57.46,14.73.15.15.23.38.23.53v10.54l-1.52,148.89v19.19c-1.36-.38-2.73-.38-4.17.08h-26.17c-2.65.08-4.1.08-4.17,0l-10.24.83c-.46,0-.91,0-1.44.08-.3-.15-.68-.3-1.06-.38h-.08c-.23.08-.46.08-.68.15-.15,0-.3,0-.38.08-.08.08-.15.15-.23.23-11.53.61-23.13,1.36-34.66,2.2-1.59.15-3.19.3-4.78.53-1.14-.53-2.58-.76-4.32-.68v.08c-.23,0-.46.08-.76.08-.08,0-.23.07-.38.07-.45.46-.83.91-1.21,1.44-2.58.45-5.08.99-7.51,1.59-3.11.68-6.22,1.37-9.33,2.12q-.08.08-.15.08c-.91.23-1.74.53-2.58.91h-.23c-.23,0-.46-.08-.53-.15-1.52-1.52-2.88-1.67-4.02-.61v.08c-.3.08-.53.08-.76.15-1.37,1.29-1.9,2.96-1.67,4.93.08.23.08.46.15.68v1.29c-.08.15-.15.3-.3.46,1.21,8.57,2.65,17.22,4.47,25.86.3,1.59.76,3.19,1.14,4.78.3.99.46,1.82.61,2.73.3,1.67.46,3.26.46,5.01-.08,1.75.38,3.11,1.29,3.87-.76,5.01.23,9.63,2.96,13.96.91,5.84,2.05,11.53,3.49,17.14,0,1.06.15,2.05.46,3.03.53,1.97,1.44,3.72,2.5,5.31.3.68.68,1.21,1.29,1.59h.07c.46.53.91.99,1.52,1.52.38.38.84.53,1.37.61,1.44.08,2.96.15,4.47.23v1.06c-.08,2.2.53,3.79,1.82,4.93.15.3.3.53.61.76.15.08.38.15.61.15h.46c.15.08.23.08.3.15.08.15.08.3.23.46.08.08.3.15.53.15.61.76,1.67,1.06,3.19.91,3.79,1.21,7.74,1.06,11.68-.46,2.35-.91,4.78-1.67,7.21-2.28,3.49-.83,6.98-1.44,10.47-1.9.38,2.88.76,5.77,1.21,8.65.61.99,1.44,1.67,2.5,2.05.46.53.91.91,1.36,1.14l.08.08h0c1.67.99,3.64.99,5.92-.08,6.6-2.88,13.27-5.84,19.87-8.8.53-.15.99-.38,1.59-.53,1.9-.45,3.87-1.06,5.69-1.74,4.1-.08,8.19,0,12.36,0,.68.15,1.52.15,2.5.08,1.37.15,2.66.46,3.94.83,0,.3,0,.61.08.91l-.15,151.01h17.44l.23-151.01c-.08-.08-.15-.23-.23-.38v-1.52h7.58c2.28,0,4.55-.08,6.83-.38v-.38h3.72c4.55,2.35,9.33,4.25,14.41,5.69,3.11,1.82,6.37,3.26,9.71,4.47,5.16,1.82,8.49.38,10.09-4.4.61-1.74.91-3.64.76-5.46,1.37.38,2.65.76,3.87,1.21,8.27,2.96,16.84,4.47,25.71,4.55,4.55.08,7.81-1.9,9.56-5.84.46-.99.53-1.9.3-2.88,2.73.08,5.54,0,8.34-.08,2.2-.15,3.87-.99,5.08-2.65.53-.76.83-1.59.91-2.5.38-2.58.61-5.16.91-7.74.38-4.55,1.44-9.1,2.96-13.5.45-1.14.61-2.12.61-3.03.53-1.82.53-3.34-.08-4.47,1.29-3.19,2.05-6.45,2.35-9.86.15-2.05.38-4.02.68-5.99.46-.38.53-1.06.3-2.12.23-1.14.38-2.28.61-3.41.23-.23.3-.68.3-1.29.07-.53.23-1.06.3-1.59.23-.91.46-1.74.68-2.5,1.67-4.93,2.73-9.86,3.19-14.94.08-.84.15-1.52.23-2.28.08-.23.08-.46.15-.68.38-2.12.91-4.17,1.67-6.14,1.14-2.73.83-4.78-.84-6.3v-.61c0-.68-.23-1.29-.61-1.9-1.14-1.52-2.65-1.74-4.63-.76-.61.38-1.21.61-1.82.76-3.79-1.06-7.66-1.9-11.53-2.58-.91-1.9-2.88-2.65-5.92-2.35-.99.15-1.97.53-2.88,1.14-1.06-.15-2.12-.23-3.26-.3-5.84-.38-11.68-.83-17.52-1.14-.46-.08-.91-.08-1.29-.08h-.45c-1.67-.15-3.34-.23-5.01-.3,0-.08,0-.15-.08-.15-1.21-.23-2.43-.38-3.72-.38-.23,0-.46,0-.76.08ZM196.14,237.25c.68.08,1.44.08,2.2.15,10.09.53,20.17,1.29,30.26,2.2-.08.3,0,.68,0,1.06,0,1.14.15,2.2.38,3.19,0,.08.15.08.38.08h2.28c.3,0,.46-.08.61-.15.08-.15.15-.3.15-.61.61-.08.91-.53.99-1.21.38-.53.76-1.14.99-1.82.15.08.38.08.53.15.08,1.9-.08,3.79-.53,5.69-.84.08-1.59.15-2.43.23h-1.82v.15c-.76.08-1.52.15-2.27.15-1.97.15-3.94.3-5.99.46h-3.87v.38c-.76.08-1.52.15-2.28.23-.61.07-1.29.15-1.9.15h-3.41v.3c-2.65.23-5.31.45-7.96.61-1.36-.08-2.65-.23-3.87-.46-.3-1.21-1.37-2.05-3.11-2.5v.08c-.3,0-.53.08-.76.15-.23-.08-.53-.15-.84-.08.08-.38.08-.76.08-1.21,1.44-1.82,2.12-3.94,2.12-6.3,0-.3,0-.68.08-1.06ZM212.52,253.02h0c.83,0,1.59,0,2.28-.23,5.84-.45,11.68-.99,17.52-1.59.23.15.46.3.68.53.07.08.15.3.15.53v.68c-.08.38-.15.76-.23,1.21-.15.23-.38.53-.61.76-.08.15-.15.23-.3.38,0,2.65-.38,5.31-.91,7.89-.99,4.55-1.9,9.18-2.81,13.73h-.53c-.53-.53-1.14-.83-1.9-.91-.23-.08-.38-.08-.53-.08-.99-.3-2.05-.53-3.03-.76-.91-.08-1.82-.23-2.65-.23-.3-.15-.61-.38-.91-.38-3.19-.38-6.45-.68-9.56-1.06-4.1-.38-8.19-.91-12.21-1.37.3-4.47.61-8.95.91-13.43,0-.91.23-1.74.46-2.5.23-.76.3-1.44.38-2.12,4.63-.3,9.18-.68,13.8-1.06ZM169.14,249.46l-31.25,1.9v-17.29c.08,0,.23.08.3.15v-.46l10.39.53c1.29.08,2.58.15,3.87.23l28.06,1.82c2.12.08,4.32.23,6.45.38.08.3.15.68.3,1.06,0,.08.15.08.38.08,0,.53.15.99.3,1.37.08.15.23.15.45.15.3.3.53.46.83.61.23.15.45.15.68.15v.91c-1.59,2.5-2.58,5.23-2.81,8.34-.23,0-.53.08-.83,0-.3,0-.53-.08-.91-.15h-3.79c-.23,0-.45.08-.68.08-.3.08-.53.15-.76.23-3.72-.08-7.36-.08-11-.08ZM192.12,258.11c.15-.3.3-.61.45-.91-.08.53-.08,1.06-.15,1.67-.15,4.17-.38,8.34-.61,12.52-.53,0-1.06-.15-1.59-.23,0-.23,0-.46.08-.76.53-.3.76-.99.45-2.2,0-.23-.08-.46-.08-.76v-4.55c.08-.53.23-1.06.38-1.59.53-.23.68-.91.53-1.82.15-.46.38-.91.53-1.36ZM186.81,254.92c-.08.08-.08.15-.08.23-.76,3.87-1.21,7.89-1.44,11.76-.08,1.37-.15,2.65-.3,3.94-7.66-.23-15.32-.53-22.98-.84-1.37,0-2.73-.08-4.02-.08-6.37-.15-12.74-.3-19.04-.38-.23-.23-.46-.38-.61-.61v-11.76l23.44-.61h0c.38,0,.84,0,1.21-.08,3.26-.3,6.45-.53,9.71-.68,4.7-.3,9.41-.61,14.11-.91ZM189.77,276.54c.53.08,1.14.15,1.67.23v.53c0,.76-.08,1.52-.15,2.28h-.61v8.34h-.76v6.83c-.23,0-.38.08-.46.23-.23.3-.45.53-.68.76h-.76c-.08-.15-.23-.38-.23-.68.15-1.44.3-2.88.46-4.32.38-.38.46-1.06.23-2.05v-.08c.23-2.12.46-4.25.68-6.45.23-.3.3-.83.15-1.44.15-1.36.3-2.81.45-4.17ZM184.53,276.01c-.23,1.9-.45,3.79-.76,5.76-.68,4.78-1.29,9.56-1.82,14.34-2.88.15-5.76.23-8.65.38-1.29-.38-2.81-.38-4.63-.23v.38c-8.95.3-17.9.38-26.77.3h-.08c2.35-.3,1.97-.53-1.21-.68v-7.58c0-.23,0-.46.08-.76.3-3.64.08-6.67-.83-9.1,0-.23-.08-.46-.15-.61-.38-.61-.83-1.14-1.36-1.67v-2.27h1.74c5.38.3,10.77.53,16.23.83.83.08,1.67.08,2.5.08.38.08.76.08,1.29,0h.91c7.81-.15,15.7.15,23.51.83ZM204.1,278.36c1.67.08,3.41.23,5.08.3.38.38,1.06.46,1.97.3h.15c1.74.15,3.56.38,5.38.61.15.23.53.23,1.14.15.38,0,.68.08.91.15h.23c.45.61,1.29.83,2.73.61.3.08.61.15.99.23.23.53.84.68,1.74.53.15.08.23.08.3.08.91.08,1.82.08,2.73.23-.53,3.26-1.14,6.6-1.59,9.94-5.31,1.21-10.77,2.05-16.23,2.58-4.93.46-9.71.83-14.56,1.21.15-2.2.38-4.4.53-6.6.3-3.56.61-7.05.91-10.69.99,0,2.35-.08,3.87,0,1.21.23,2.43.3,3.72.38ZM240.51,242.63v.08c-.15,0-.3,0-.38.08,0-.46.08-.91.15-1.37,1.97.38,3.94.61,6.07.68.08.15.15.3.3.46.08.15.15.38.15.61h-.38c.08.38,0,.61,0,.83-.08.08-.15.08-.15.08-.15.08-.3.23-.38.3-.15.08-.23.08-.3.08-.61-.68-1.29-1.14-2.28-1.44-.3-.23-.68-.46-1.06-.61v.38c-.53-.15-1.06-.15-1.74-.15ZM240.66,250.37c.15.23.23.53.3.83-.3.61-.61,1.21-.83,1.82h-.15v.38c-.45,1.44-.83,2.96-1.14,4.55-.99,6.6-2.12,13.05-3.34,19.49-.61-.08-1.21-.15-1.82-.23.08-.53.23-.91.38-1.44v-.15c1.06-4.02,1.82-8.12,2.27-12.36.38-3.26,1.14-6.45,2.35-9.4.45-1.29.68-2.35.61-3.34.46,0,.91-.08,1.36-.15ZM247.79,249c.15,0,.3-.08.46-.08.08,0,.08-.08.08-.08.91-.38,1.82-.76,2.65-1.14.76-.15,1.29-.46,1.74-.91,0,0,0-.08.08-.08.15-.15.38-.23.53-.38.15.15.3.3.38.46-.61,4.17-1.44,8.27-2.28,12.29h-.08v.15c-.53,2.35-1.06,4.7-1.67,7.05-.99,3.64-1.75,7.28-2.43,11-.23,1.29-.3,2.5-.23,3.79v1.37c-1.14-1.06-2.43-1.97-3.94-2.58-.91-.38-1.82-.76-2.65-1.06,1.75-8.95,3.49-17.82,5.31-26.7.08-.08.23-.23.3-.38.23-.68.38-1.21.46-1.67v-.3c.08-.08.08-.23.08-.38.46-.08.84-.23,1.21-.38ZM232.54,289.66c-.53.38-.91,0-.91-.99.38-2.05.68-4.1.99-6.14.83-.08,1.44.08,1.74.53-.08.61-.23,1.21-.38,1.82h-.08v.3c0,.23-.08.3-.08.53-.68,1.21-1.06,2.5-1.29,3.94ZM238.39,288.06c.3-1.06.53-2.12.76-3.19,1.06,0,1.9.15,2.5.61.08.08.23.15.38.15.08.08.15.15.23.15.08.23.08.38.23.45.07.08.23.15.45.15-.45.23-.91.38-1.36.53-1.06.38-2.12.76-3.19,1.14ZM23.74,239.14c.38,0,.76-.08,1.14-.15-.08.83,0,1.67.15,2.5.08.91.23,1.82.3,2.65.08,1.21.23,2.43.53,3.56h-3.57v-.38c-.68-.08-1.29-.23-1.82-.46-.38-1.52-1.14-2.65-2.2-3.41-.3-.61-.76-.91-1.37-.76-1.21-.53-2.65-.68-4.32-.61-.68.15-1.29.38-1.9.84-.15-.15-.3-.23-.45-.3,3.03-1.44,6.37-2.43,9.86-2.96,1.21-.15,2.43-.3,3.64-.53ZM15.47,250.14c-.23,1.67.38,3.03,1.59,3.94.15.38.46.53.84.46.61.15,1.14-.08,1.59-.61,0-.08.08-.08.08-.15h.45c1.14.08,1.59-.15,1.52-.68,2.12.68,4.32,1.14,6.67,1.29h.08c.45,6.6,1.52,13.12,3.11,19.49v.38c0,.23,0,.53.08.76-1.36.23-2.65.53-3.94.76-2.88.91-5.69,1.82-8.42,2.81-.08-.38-.15-.83-.23-1.29-.53-3.79-1.52-7.43-2.73-11-.08-.46-.08-.99-.15-1.52-.08-.53-.23-.99-.53-1.52-.15-.08-.23-.23-.38-.38,0-1.67-.15-3.26-.45-4.78-.53-2.58-.91-5.23-1.06-7.89.68.08,1.29.08,1.9-.08ZM37.7,239.37c0-.68-.08-1.29-.15-1.82,1.44-.15,2.88-.3,4.25-.46h.99c1.06,0,2.05-.08,2.96-.3,5.69-.53,11.3-.91,16.99-1.21h8.19v1.14c.15,2.58.3,5.08.61,7.58.23,1.74.46,3.49.68,5.23.08.38.15.76.15,1.14v.83h-5.46c-1.52,0-3.03-.08-4.47-.15-.15-.08-.23-.08-.3-.08-1.06-2.28-3.03-3.64-5.99-4.1-.61,0-1.21.23-1.74.76-.61.68-1.14,1.37-1.52,2.12-.15.23-.15.46-.3.68h-3.87c-2.2-.08-4.4-.15-6.67-.23,0-.08,0-.15-.07-.15-1.21-.23-2.43-.38-3.72-.38-.38,0-2.2-.15-5.46-.46-.3,0-.61-.08-.91-.15,0-.3,0-.61-.08-.91-.38-1.14-.68-2.35-.99-3.56-.46-2.28-.53-4.48-.23-6.6.38-.08.83-.15,1.21-.15.23.15.45.38.68.53.07.15.23.3.38.38,0,.3,0,.53-.08.76-.08.83.23,1.44.83,1.9.15.08.23.15.3.15.08.15.08.3.15.46,0,.08.15.08.38.08h.53c.83.38,1.44.3,1.97,0,.61-.23.84-.76.76-1.74v-1.29ZM7.36,247.18c.15.15.3.38.38.61.15.23.15.46.15.68,0,1.06.15,2.05.38,2.96,0,.08.08.08.23.08.08,2.12.3,4.17.61,6.22.3,1.67.61,3.41.99,5.01.23,1.21.53,2.43.83,3.72.08.08.08.23.08.38-.15,1.14.15,2.2.91,3.03.15.23.38.38.53.61,0,.99.15,1.97.38,2.88.23,2.43.61,4.85,1.14,7.13-.61.23-1.21.46-1.74.68-.15-.83-.3-1.67-.53-2.5-.61-2.96-1.14-5.92-1.59-8.87-.08-.46-.15-.91-.23-1.37-.15-1.14-.38-2.35-.61-3.49-1.14-4.86-1.97-9.78-2.5-14.79-.15-1.14-.46-2.2-.83-3.18h.76c.15.08.38.15.68.23ZM34.28,258.48c-.08-1.29-.23-2.43-.53-3.56,5.92.23,11.83.61,17.75.91-.08,1.14-.08,2.27.08,3.49.53,4.17,1.14,8.34,1.82,12.51-5.69.53-11.3,1.29-16.84,2.28-.46-2.66-.91-5.31-1.44-8.04-.46-2.5-.76-5.08-.83-7.58ZM21.16,288.52c-.38-1.52-.76-2.96-1.06-4.47,3.03-1.14,6.07-2.2,9.1-3.34,1.14.15,2.2.38,3.11.99.08,0,.15.08.23.08,0,.38.08.76.15,1.06.15.76.3,1.52.38,2.35.07,1.14.23,2.28.3,3.49.15.68.23,1.37.3,2.05v.23c0,.3,0,.53-.08.76v.08c-3.56-.76-7.05-1.67-10.47-2.65-.68-.23-1.37-.46-1.97-.61ZM38.15,281.54c0-.83-.08-1.59-.23-2.28,5.39-.91,10.85-1.52,16.31-2.05.76,4.02,1.44,7.89,2.27,11.83.38,2.05.76,4.1,1.14,6.14-6.07-.46-12.14-1.21-18.2-2.27h-.08c-.23-1.52-.45-3.03-.68-4.48-.3-2.27-.45-4.55-.53-6.9ZM92.84,234.06h5.08l10.39.46c8.57-.15,12.97-.23,13.35-.46v6.83c0,.3-.08,3.87-.23,10.92-7.58.53-14.71.91-21.47,1.06-3.34-.15-6.67-.3-9.94-.38-3.94-.61-8.04-.91-12.21-.99-.08-.23-.08-.45-.15-.68-.46-3.49-.91-7.05-1.14-10.62,2.12.46,3.03-.3,2.73-2.35-.08-.23-.08-.45-.08-.76v-2.35c.83-.07,4.32-.3,10.62-.68h3.03ZM63.03,257.73v-1.14c3.41.15,6.75.38,10.16.68,0,1.59.15,3.19.3,4.85h.3c.08.3.08.61.08.91v7.66h-.61c-4.86.08-9.63.3-14.34.68,0-.53-.23-.76-.61-.83-.08-.23-.15-.3-.15-.53-.08-.76-.15-1.44-.15-2.2v-.38c.3-1.29.15-2.12-.38-2.65-.08-.91-.23-1.82-.38-2.73.23-.91.15-1.59-.23-1.9-.08-.15-.08-.3-.15-.38-.15-1.29-.3-2.58-.23-3.56h.68c.23.83.46,1.74.68,2.65.15.38.3.68.61.84,2.81,2.2,4.32,1.52,4.4-1.97ZM60.9,282.07c-.3-1.74-.68-3.49-1.06-5.23.83-.08,1.59-.15,2.35-.15,4.17-.3,8.34-.53,12.44-.76v4.4c0,1.06.15,2.05.38,2.96,0,.08.15.08.38.08v7.59c0,1.29.15,2.5.38,3.72,0,.08.08.08.3.08,0,.38,0,.68.08,1.06-2.12-.08-4.25-.15-6.29-.15-2.28,0-4.55-.08-6.75-.15-.68-4.47-1.44-8.95-2.2-13.42ZM79.71,270.47c-.3-4.32-.68-8.57-1.14-12.89,14.33.15,28.75.15,43.08.08v11.45c-5.84-.76-11.83-1.06-17.9-.61-.38.08-.76.08-1.29.15-5.76.15-11.6.61-17.37,1.29-1.82.23-3.56.38-5.38.53ZM80.25,280.48c0-1.67-.08-3.34-.23-5.01,4.02-.3,8.04-.68,12.06-1.06.61,0,1.21-.08,1.82-.15h27.76v2.27h-.38c.08,1.37-.53,1.9-1.9,1.52v.76h-.76v17.44h-6.07c.08.15.15.23.15.3-.99.08-1.9.08-2.88.08-9.1.23-18.2,0-27.3-.53-.45-.08-.91-.08-1.37-.08-.23-2.81-.38-5.54-.53-8.27-.15-2.43-.3-4.86-.38-7.28ZM152.91,302.02c1.67,0,3.34,0,5.08.08,7.81.15,15.55.08,23.36-.3-.3,2.81-.61,5.61-.83,8.49-.46.23-.83.38-1.29.53-1.44.3-2.35.99-2.88,2.12h-6.9c0-.23,0-.38-.08-.38-1.21-.23-2.43-.38-3.72-.38h-3.79v-.38c-3.56-.23-7.05-.38-10.62-.38,0-.23,0-.38-.08-.38-1.21-.23-2.43-.38-3.72-.38h-6.83v-8.8c4.1,0,8.19.08,12.29.15ZM137.59,326.59c.08-.08.15-.15.23-.15,2.43,1.14,4.85,2.12,7.51,2.81.91.38,1.82.76,2.81,1.14h-4.85c-1.74-.15-3.49-.3-5.31-.38.53-.53.46-1.44-.23-2.73-.08-.15-.15-.38-.15-.68ZM160.34,328.87v-.76h4.55c.3.3.53.45.83.61.23.15.46.15.68.15,0,.3,0,.46-.15.46-.38.23-.83.3-1.37.3h-4.55v-.76ZM118.62,306.12v4.55h-4.55v.76h-8.34v.76h-21.09c-.08,0-.08-.08-.15-.08v-.3h-.3c-.76-.76-1.52-1.59-2.2-2.43-.15-2.5-.3-4.93-.46-7.36,3.11-.08,6.29-.08,9.48-.15,1.14.68,2.73.83,4.85.53.3-.08.53-.08.76-.08h15.17c1.52,0,2.96-.08,4.47-.38.08,0,.08-.08.08-.23h2.28v4.4ZM106.49,325.84h.08c-.53.38-.99.76-1.44,1.14-.53.45-1.06.83-1.59,1.14-.53.08-.99.08-1.59,0v.76h-.76c-.23,0-.46.08-.53.23-.53.68-1.59.91-3.26.53h-2.43c-.46-.08-.99-.23-1.44-.38-1.06-.3-2.05-.46-3.11-.53.15-.15.15-.3.15-.61h.76c1.06,0,2.05-.08,2.96-.3.08-.08.08-.15.08-.46h2.27c1.06,0,2.05-.08,2.96-.3,0-.08.08-.15.08-.46,1.06,0,2.05-.08,2.96-.3,0-.08.08-.15.08-.46h3.79ZM115.36,329.17c-.23,0-.38,0-.61.08-.23-.08-.38-.23-.53-.38,1.14-.53,2.35-.99,3.49-1.36,1.14-.38,2.2-.91,3.19-1.59v3.72h-.76c-1.52-.3-3.11-.46-4.78-.46ZM76.6,304.6c.08,1.67.15,3.34.23,5.01.08.3.08.53.15.84,0,.83.15,1.67.3,2.43,0,.08.15.08.38.08,0,.3,0,.53.08.76.15,1.52-.61,2.05-2.35,1.52v.76h-4.55v.76h-.76c-.23,0-.46.08-.68.15-1.21.53-2.35.68-3.34.46-.38-2.66-.68-5.23-1.06-7.81-.3-2.73-.68-5.46-1.06-8.12,4.1.23,8.19.45,12.21.53.08.91.15,1.75.38,2.58q0,.08.08.08ZM59.46,306.12v.76c0,1.52.15,3.03.38,4.47,0,.08.15.08.38.08,0,.38.08.68.15.99.23,1.59.45,3.26.61,4.93v.15h-1.52v-.38c-2.28-.23-4.55-.38-6.83-.38v.76h-8.49c-1.44-6.14-2.65-12.29-3.79-18.51,6.14.83,12.21,1.52,18.36,2.05.23,1.67.53,3.41.76,5.08ZM41.87,323.18c.3.23.61.38.99.38,5.99-.15,11.98-.23,17.97-.45.08.15.08.23.15.38-1.29-.08-2.58-.15-3.79-.15-.53,0-.99.08-1.44.08-8.65.99-17.29,1.59-26.02,1.82-.23-1.29-.38-2.58-.45-3.87-.15-2.43-.53-4.85-1.21-7.13-1.29-4.85-2.65-9.71-3.94-14.56-.38-1.67-.83-3.26-1.29-4.93h1.29c1.97.61,4.02,1.14,6.22,1.59.08.08.23.23.38.3,1.14.76,2.5,1.21,3.94,1.44,0,.3.08.53.15.83.91,3.49,1.67,7.05,2.12,10.54.23,1.67.46,3.34.68,5.01.38,3.26,1.67,6.07,3.87,8.34h-.23v.38h.61ZM61.74,328.87v.08c-.99.15-2.05.46-3.03.68h-.76c-.23,0-.45.08-.68.15-.46.15-.91.3-1.44.46-1.67.23-3.34.53-5.01.99-.61.23-1.29.38-1.9.61-2.2.38-4.47.68-6.9.84v.76c-.23,0-.45.08-.68.15-.46.15-.84.3-1.29.46-2.81,0-5.54-.61-8.19-1.9v-.23c.08-.53.08-1.06.08-1.52,2.28-.08,4.63-.15,6.98-.23,1.29-.08,2.65-.15,4.09-.3,4.17-.23,8.34-.68,12.51-1.36,2.12-.3,4.4-.3,6.6,0-.08.08-.23.23-.38.38ZM68.41,333.65c1.14-.08,2.28-.15,3.41-.15,2.05-.08,3.94-.3,5.84-.76,3.56.61,7.13.91,10.77.99.3,0,.61.08.91.15-.3.15-.61.23-.91.38,0,0-.08,0-.15-.08v.15c-4.63,1.82-9.33,3.64-13.96,5.46-.83.3-1.59.53-2.43.61-.61.08-1.14.15-1.67.3-.3-.23-.61-.53-.91-.83-.3-2.05-.61-4.1-.91-6.22ZM84.72,322.2c-5.99.53-11.91.76-17.82.76,5.92-.23,11.83-.53,17.82-.76ZM16.84,292.08c.15.76.3,1.44.46,2.12.53,2.28,1.06,4.47,1.67,6.75.15.76.38,1.59.61,2.43.08.15.08.3.08.38s0,.08.08.08c.15.53.3,1.14.46,1.67,0,.46.07.91.23,1.29q0,.08.08.08c.15.38.23.76.3,1.21.08.84.15,1.67.38,2.5,0,.08.15.08.38.08v.15c-.3,1.29-.08,2.12.61,2.43.08.23.15.46.15.61,0,.99.15,1.9.38,2.81,0,.08.08.08.23.08.23,2.05.53,4.02.91,5.99v.08c0,.3,0,.46-.15.46-.3.23-.76.3-1.21.3-.23-.38-.53-.76-.83-1.14-.38-.53-.61-1.06-.61-1.67-.15-1.74-.68-3.19-1.52-4.4,0-.53-.15-.99-.38-1.36-.23-1.52-.45-3.11-.68-4.63-.46-3.11-1.14-6.14-1.97-9.03,0-.38-.07-.68-.3-.91-.15-.53-.3-1.06-.53-1.59.15-.91-.08-1.52-.61-1.74-.08-.15-.15-.38-.23-.61v-.23c.3-1.36.08-2.12-.83-2.27v-3.26c.99.53,1.9.99,2.88,1.37ZM23.82,325.08h.61c0,.08,0,.15.08.23h-.68c0-.08-.07-.15-.23-.23h.23ZM244.38,291.93c.08,0,.15,0,.3-.08-.99,2.73-1.75,5.46-2.28,8.27-.15,1.14-.08,2.12.3,2.81-.38,1.06-.61,2.2-.68,3.41-.08.53-.15,1.14-.15,1.74-.15.08-.23.23-.38.3v2.35c-.08.61-.15,1.14-.23,1.74,0,.15,0,.3-.08.46h-.08c0,.23,0,.38.08.53,0,.83-.15,1.59-.38,2.12-.15.53-.46.91-.83,1.14v3.03h-.76v3.79h-.76v2.28c-.08.08-.23.08-.38.08-2.28.23-4.55.23-6.83.15-.15-.23-.23-.38-.23-.61-.08-.23-.15-.53-.15-.76.38-.3.68-.68.76-1.14,1.29-5.23,2.35-10.39,3.34-15.55.38-.3.61-.68.68-1.21.23-2.81.76-5.61,1.44-8.27.3-1.36.38-2.58.08-3.56,2.35-.68,4.55-1.59,6.67-2.81.15-.08.3-.15.53-.23ZM230.5,296.41c.3-.08.61-.15.99-.23.08.23.08.53.15.83v.68c-.08.76-.23,1.59-.38,2.35h-.38v3.26c0,.38-.08.76-.08,1.14-.15.3-.23.61-.3.91h-.38v1.52h-.76v2.58c-1.36,5.08-2.65,10.24-3.87,15.4,0,.23-.08.46-.08.68-7.05-.68-13.96-1.59-20.86-2.73h11.15c2.05,0,4.02-.08,6.07-.38v-.38h.76c.76-.15,1.29-.61,1.52-1.36.08-.08.15-.15.3-.3.99-.91,1.52-2.05,1.52-3.26.08-1.06.15-2.12.3-3.11.3-.46.38-1.06.38-1.82.08-.68.3-1.36.45-2.05.46-1.37.68-2.73.83-4.1.23-.38.23-.91.23-1.44v-1.21c0-.15,0-.3.08-.45.46-.38.76-1.14.68-2.12.07-.23.15-.38.3-.53.99-1.52,1.44-2.81,1.36-3.87ZM223.06,297.62c.3-.08.61-.15.99-.15-.76,1.29-1.14,2.73-1.21,4.32,0,1.67-.15,3.41-.3,5.08h0v.46c-.08,1.06-.23,2.12-.38,3.26-.23,2.65-1.14,5.01-2.65,6.98-.23.3-.38.53-.38.84-.08-.08-.23-.08-.38-.15h-17.45c-.23,0-.46,0-.76.08-2.35.08-4.4-.15-6.07-.83h-1.52c.53-5.46,1.06-11,1.59-16.53,7.43-.53,14.71-1.37,22.15-2.43,1.52-.23,3.11-.46,4.7-.68.76.15,1.29.08,1.67-.23ZM195.99,328.11h7.05c2.12.38,4.25.76,6.45,1.14,5.01.99,10.16,1.67,15.25,2.05.08.15.08.38.08.61-.08.15-.23.38-.38.68-.08.23-.15.46-.23.68-.3.15-.53.3-.76.45-.15.15-.3.23-.38.38-.91.08-1.82.15-2.81.15-2.66.15-5.31,0-7.96-.45-4.17-.68-8.34-1.44-12.44-2.35-.3-.08-.53-.15-.84-.3h-.53c-1.14-.23-2.2-.45-3.26-.68v-2.35h.76ZM186.81,302.85c.08-.46.15-.91.23-1.37.76,0,1.52-.08,2.28-.15,0,.08,0,.15-.08.23,0,.3-.08.53-.08.76h-.76v9.86h-.38c.38,2.43-.23,3.64-1.9,3.79v-.38c-1.37.15-2.12-.23-2.28-1.14v-.15c.3-.23.53-.53.83-.83.38-.3.61-.68.76-1.37.3-.83.53-1.74.68-2.88.15-2.12.45-4.25.68-6.37ZM179.98,332.36c.08-.08.08-.15.08-.45h3.03c1.21.38,1.97,1.14,2.2,2.28.08.3.08.53.08.76v.53c0,.23-.08.45-.15.76-.23,1.29-.83,2.43-1.67,3.41-.23,0-.46.08-.68.08-.68-.38-1.52-.68-2.43-.83-.38-.15-.76-.3-1.14-.46l-.08-.08c-.08-.08-.15-.08-.3-.08-1.67-.76-3.34-1.44-4.93-2.12q-.08-.08-.15-.15c-.61-.3-1.29-.61-1.97-.76-.3-.15-.61-.3-.91-.38,0-.23-.08-.3-.15-.38-.38-.15-.76-.3-1.29-.3h-.08v-.76c.76,0,1.52-.08,2.2-.3.08-.08.08-.15.08-.45h5.31c1.06,0,2.05-.08,2.96-.3Z"/>
  <path class="cls-1" d="M235.43,319.01c0,.3.08.46.15.68,1.52,2.5,1.44,2.35-.15-.68Z"/>
  <path class="cls-1" d="M186.89,302.32c0,.3.08.53.08.76.76,4.1.68,3.87-.08-.76Z"/>
  <path class="cls-1" d="M55.67,58.86c0,.3.08.53.08.76,1.14,5.08,1.14,4.85-.08-.76Z"/>
  <path class="cls-1" d="M146.69,189.92h.15v-.76c0,.07-.08.15-.15.15v.61Z"/>
  <g>
    <path d="M97.77,112.48c.99-.91,1.44-2.05,1.29-3.26-.15-1.9-.3-3.79-.38-5.76-.23-1.21-.76-2.28-1.9-3.11-.46-.38-.99-.61-1.52-.83-.15-1.82-.23-3.72-.3-5.54.61-.23,1.14-.61,1.59-.99,1.06-.99,1.52-2.05,1.52-3.26-.08-1.9-.15-3.79-.15-5.69-.15-1.29-.61-2.35-1.67-3.19-.38-.38-.83-.61-1.29-.76,0-2.2,0-4.32-.08-6.45.61-.23,1.14-.53,1.67-.99.99-.84,1.52-1.9,1.52-3.11v-5.76c-.08-1.21-.53-2.28-1.59-3.19-.45-.38-.91-.76-1.44-.91-.08-1.9-.08-3.72-.08-5.61.61-.15,1.21-.53,1.74-.91.99-.84,1.44-1.9,1.52-3.11-.08-1.97-.08-3.87-.08-5.76-.08-1.37-.53-2.43-1.59-3.26-1.06-.99-2.28-1.52-3.72-1.52-1.52-.08-2.73.38-3.72,1.21-1.06.83-1.59,1.9-1.59,3.11.08,1.97.08,3.87.08,5.84,0,1.21.53,2.35,1.52,3.26.38.38.91.68,1.36.91v5.76c-.53.15-.99.46-1.52.83-.99.83-1.52,1.9-1.52,3.11v5.92c0,1.14.53,2.28,1.59,3.19.38.38.83.61,1.37.83,0,2.2,0,4.32.07,6.45-.68.23-1.29.53-1.74.99-1.06.83-1.59,1.9-1.59,3.19.08,1.97.15,3.94.15,5.84,0,1.21.61,2.27,1.67,3.18.46.38.91.68,1.37.84.08,1.9.23,3.87.3,5.76-.53.23-1.06.53-1.52.91-1.06.91-1.52,1.97-1.44,3.26.08,1.9.23,3.87.38,5.76.08,1.29.68,2.35,1.9,3.26.38.3.91.61,1.44.76.15,1.74.3,3.41.46,5.16-.68.15-1.21.53-1.74.99-1.06.91-1.52,1.97-1.36,3.26.15,1.97.38,3.87.61,5.84.15,1.21.83,2.35,2.12,3.19.53.3,1.06.61,1.59.83.08.91.23,1.9.38,2.81.15.99.3,1.9.38,2.88-.53.23-1.06.53-1.59.91-1.06.91-1.52,1.97-1.37,3.26.23,1.97.53,3.87.91,5.84.15,1.21.91,2.27,2.35,3.03.45.38,1.06.68,1.59.83.38,2.12.83,4.25,1.21,6.37-.68.23-1.37.61-1.9,1.06-1.14.99-1.52,2.12-1.29,3.34.38,1.97.76,3.87,1.14,5.84.3,1.21,1.21,2.28,2.65,3.03.53.23,1.14.45,1.74.68.46,1.9.91,3.79,1.37,5.69-.61.23-1.06.61-1.52,1.06-1.14,1.06-1.44,2.2-1.14,3.49.46,1.97.99,3.87,1.59,5.84.3,1.29,1.29,2.28,2.81,2.96.61.3,1.14.53,1.74.68,0,0,0,.08.08.08l.91,3.64h.08c.08.23.08.53.23.76-.61.23-1.14.61-1.52.99-.99.99-1.36,2.12-1.06,3.41.53,1.9.99,3.79,1.52,5.61.3,1.21,1.21,2.2,2.73,2.88.53.3,1.14.53,1.74.68.23.76.46,1.52.68,2.35h-.08c.38,1.06.83,2.2,1.21,3.34-.68.3-1.21.76-1.67,1.29-.99,1.14-1.21,2.28-.76,3.41.61,1.9,1.29,3.72,1.97,5.61.53,1.14,1.59,2.05,3.19,2.66.53.23,1.21.38,1.9.53.15.53.53,1.21.91,1.97h0c.61,1.14,1.21,2.35,1.82,3.49-.46.3-.91.76-1.21,1.29-.83,1.14-.83,2.35-.23,3.56.99,1.74,1.97,3.49,3.03,5.31.61,1.14,1.82,1.9,3.56,2.28.61.23,1.29.3,1.97.38v.08l1.82,3.26,3.94-.68v-.15c-.38-.53-.68-1.14-.91-1.75l1.14-.15c-.46-.76-.91-1.59-1.36-2.35.53-.46.91-.99,1.29-1.67.61-1.21.61-2.43,0-3.56-.99-1.75-1.97-3.49-2.96-5.23-.68-1.14-1.75-1.9-3.26-2.2-.76-.15-1.44-.23-2.05-.15-.38-.76-.76-1.44-1.14-2.12-.61-.91-1.14-1.9-1.44-2.81.61-.45,1.14-.99,1.52-1.52.83-1.21.99-2.35.53-3.41-.68-1.82-1.36-3.64-2.05-5.46-.46-1.14-1.37-2.05-2.88-2.5-.53-.23-1.14-.3-1.67-.38-.3-.83-.61-1.74-.91-2.58h0c-.38-.99-.61-1.97-.91-2.96.61-.38,1.14-.83,1.59-1.29.91-1.06,1.21-2.2.91-3.34-.61-1.9-1.06-3.72-1.59-5.54-.38-1.14-1.21-2.12-2.58-2.73-.68-.3-1.29-.53-1.9-.61-.15-.68-.3-1.37-.46-1.97h0c-.23-.83-.46-1.74-.76-2.58.61-.38,1.14-.84,1.74-1.44.83-1.14,1.14-2.28.83-3.49-.53-1.97-1.06-3.87-1.52-5.76-.3-1.21-1.14-2.2-2.58-2.81-.61-.3-1.29-.46-1.97-.53-.38-1.82-.83-3.64-1.21-5.54.68-.3,1.21-.76,1.67-1.29.99-1.06,1.37-2.2,1.14-3.41-.45-1.82-.83-3.72-1.14-5.61-.3-1.21-1.14-2.2-2.43-2.88-.61-.23-1.14-.46-1.59-.53-.45-2.12-.83-4.25-1.21-6.3.68-.38,1.29-.76,1.74-1.21.99-.99,1.44-2.12,1.21-3.26-.38-1.9-.68-3.79-.91-5.69-.3-1.21-.99-2.2-2.27-2.96-.61-.38-1.21-.61-1.75-.76-.15-.83-.3-1.67-.38-2.5-.15-.99-.3-2.05-.46-3.03.61-.23,1.21-.61,1.75-1.14.91-.91,1.36-1.97,1.21-3.19-.3-1.97-.61-3.87-.76-5.84-.23-1.21-.83-2.27-2.12-3.11-.45-.3-.91-.61-1.44-.76-.15-1.67-.38-3.41-.53-5.08.61-.3,1.21-.68,1.67-1.14Z"/>
    <path d="M42.85,41.03c.3.61.76,1.21,1.52,1.9.38.3.83.61,1.44.83.15,1.97.38,3.87.53,5.76-.53.23-.91.61-1.37.98-.91.84-1.37,1.9-1.29,3.19.23,1.97.45,3.94.68,5.92,0,.23.08.46.08.61.53.83,1.21,1.52,1.82,2.12.45.3.91.68,1.44.91.23,1.9.46,3.87.61,5.76-.53.23-.99.53-1.44.91-.91.83-1.29,1.9-1.21,3.26.23,1.97.46,3.87.68,5.84,0,.3,0,.45.08.68.23.99.84,1.9,1.74,2.65.46.38.99.61,1.52.84.23,2.2.38,4.32.68,6.52-.68.23-1.14.53-1.59.99-.99.91-1.37,1.97-1.21,3.26.23,2.05.46,3.94.76,5.92.08,1.21.76,2.35,1.97,3.26.46.3.91.61,1.44.76.23,1.97.61,3.87.91,5.84-.61.23-1.06.61-1.44.99-.91.91-1.29,2.05-1.14,3.34.3,1.9.61,3.87.91,5.84.23,1.29.99,2.35,2.27,3.19.46.38.99.68,1.52.83.38,1.75.61,3.49.99,5.23-.61.15-1.14.53-1.67.99-.99.91-1.29,2.05-.99,3.34.38,1.97.76,3.94,1.21,5.92.3,1.29,1.06,2.35,2.5,3.19.53.38,1.06.61,1.67.83.23.99.46,2.05.68,3.11.08.15.08.3.15.46h0c.15.76.23,1.44.46,2.2-.61.23-1.14.53-1.59.99-1.06.91-1.44,2.05-1.21,3.34.3,1.97.76,3.87,1.21,5.84.23,1.29,1.06,2.28,2.43,3.11.61.38,1.14.61,1.74.76.46,2.2.91,4.32,1.44,6.45-.68.23-1.21.61-1.82,1.14-1.06,1.06-1.44,2.12-1.06,3.41.38,1.97.91,3.94,1.44,5.92.3,1.21,1.29,2.2,2.81,2.96.53.3,1.06.53,1.74.76.53,1.9,1.06,3.79,1.67,5.76-.61.23-1.06.61-1.52,1.06-1.06,1.06-1.37,2.27-.99,3.64.61,1.9,1.21,3.87,1.9,5.84.46,1.29,1.37,2.28,3.03,2.96.53.3,1.14.53,1.82.61v.15l.3.99h0l1.37,3.11c.08.3.08.53.08.76h.23v.3c.08.53.3,1.06.76,1.52-.53.53-.91,1.14-1.21,1.82-.68,1.06-.76,2.05-.23,2.88.68,1.21,1.52,2.5,2.43,3.87.53.83,1.52,1.29,3.11,1.29.53-.08,1.14-.15,1.67-.23.15.23.3.38.46.53.3.53.61.99.91,1.52.38.53.76,1.14,1.14,1.67-.38.46-.83.99-1.21,1.59-.84,1.21-.91,2.28-.38,3.19.91,1.29,1.9,2.58,2.88,3.87.61.68,1.67.99,3.26.76h.23c.61-.15,1.14-.23,1.67-.38.38.68.91,1.37,1.37,2.05-.45.45-.83,1.06-1.21,1.59-.91,1.21-.99,2.28-.38,3.19.91,1.29,1.9,2.58,2.88,3.79.68.83,1.82,1.14,3.49.83.53-.15,1.21-.3,1.74-.46h0l.83.68h-.15c-.38,1.14-.08,1.97.76,2.58,1.06.76,2.2,1.59,3.41,2.43,0,.15,0,.23-.08.3h.46c.84.61,2.05.61,3.57.15.23-.08.38-.15.61-.23h1.75l2.96,1.9,5.39-.91c-.68-.46-1.37-.83-1.97-1.21v-1.67c-.23-.38-.53-.68-.99-.83-.91-.53-1.97-1.21-3.03-1.97h-.08c.08-.15.08-.38.15-.46.15-.76.15-1.29-.15-1.82l.08,1.74h-.76c-.76-.46-1.44-.61-1.97-.53-.38,0-.83.23-1.21.53h-2.43l-2.28-1.44c-.83-.91-1.52-1.44-1.67-1.74.3-.53.68-1.14.91-1.67.45-1.21.38-2.12-.15-2.81-.99-1.14-1.9-2.27-2.73-3.41-.61-.76-1.52-1.14-2.81-1.14-.53,0-.99,0-1.29.08-.08-.08-.08-.15-.08-.23h.08c-.08-.08-.15-.15-.23-.23,0-.08-.08-.23-.15-.3h-.15c-.08-.15-.3-.3-.38-.45-.3-.3-.53-.61-.83-.91.38-.53.68-1.14.91-1.67.53-1.21.46-2.12-.15-2.81-.99-1.14-1.9-2.28-2.73-3.41-.61-.83-1.52-1.21-2.73-1.14-.61-.08-1.06,0-1.29.08-.15-.3-.3-.53-.46-.76v-.08c-.68-.99-1.36-1.9-2.12-2.88.3-.46.46-.91.46-1.29.3-1.14.15-2.05-.38-2.81-.91-1.29-1.75-2.58-2.58-3.79-.61-.83-1.37-1.36-2.28-1.67-.3-.15-.61-.15-1.06-.08-.08-.15-.15-.3-.23-.46h0v.15c-.23-.08-.15-.08,0-.15-.15-.15-.23-.3-.38-.53h-.15c-.08-.08-.08-.23-.08-.3-.08-.46-.15-.91-.15-1.37-.15-1.06.3-2.35,1.14-4.02.83-1.14,1.06-2.35.68-3.56-.61-1.97-1.21-3.87-1.82-5.84-.38-1.21-1.29-2.2-2.65-2.81-.68-.3-1.37-.46-1.97-.46-.61-1.9-1.06-3.79-1.59-5.61.61-.38,1.21-.83,1.67-1.37.91-1.14,1.21-2.28.91-3.49-.46-1.9-.99-3.79-1.44-5.69-.3-1.21-1.14-2.2-2.58-2.88-.53-.23-1.06-.46-1.59-.53-.53-2.12-1.06-4.25-1.52-6.37.61-.38,1.21-.76,1.74-1.29.91-.99,1.29-2.12.99-3.34-.46-1.9-.83-3.79-1.21-5.69-.3-1.21-1.06-2.2-2.43-3.03-.61-.3-1.21-.53-1.74-.68-.15-.61-.3-1.21-.38-1.82h0c-.08-.15-.08-.3-.15-.45h0c-.3-1.14-.53-2.2-.83-3.34.61-.3,1.14-.68,1.59-1.14.91-.99,1.21-2.12.99-3.34-.53-1.97-.99-3.87-1.44-5.84-.3-1.29-1.06-2.35-2.35-3.19-.53-.3-1.06-.53-1.52-.68-.38-1.75-.76-3.41-1.14-5.16.61-.38,1.14-.68,1.59-1.21.91-.99,1.21-2.05.99-3.26-.38-1.97-.76-3.94-1.06-5.92-.23-1.21-.99-2.27-2.2-3.11-.53-.38-1.06-.61-1.59-.83-.3-1.82-.53-3.72-.83-5.61.53-.23,1.06-.61,1.52-1.06.91-.91,1.29-2.05,1.14-3.26-.3-1.97-.53-3.87-.76-5.77-.23-1.29-.84-2.35-1.97-3.26-.53-.3-.91-.53-1.36-.68-.3-2.2-.45-4.4-.76-6.6.61-.23,1.14-.53,1.59-.99.68-.76,1.14-1.59,1.21-2.5v-.68c-.23-1.97-.46-3.87-.68-5.76-.15-1.37-.76-2.43-1.9-3.34-.53-.38-.99-.68-1.52-.83-.23-1.9-.46-3.79-.61-5.69.53-.23,1.06-.61,1.52-.99.68-.61,1.06-1.29,1.21-2.2v-.61c-.15-1.97-.38-3.94-.61-5.84-.15-1.29-.83-2.43-1.9-3.26-.53-.38-1.06-.76-1.67-.91-.15-1.9-.38-3.79-.53-5.69.53-.23,1.06-.53,1.59-.91.61-.68,1.06-1.36,1.21-2.2l-10.24.23Z"/>
    <path d="M62.04,43.38c.08,1.97.15,3.94.3,5.99.08,1.21.61,2.35,1.67,3.34.46.38.91.68,1.36.91.15,1.97.23,3.87.3,5.84-.53.23-.99.53-1.44.91-.99.83-1.52,1.9-1.44,3.18.08,1.97.23,4.02.3,5.99.07,1.21.61,2.35,1.74,3.34.38.38.83.61,1.37.83.08,2.2.23,4.47.38,6.6-.68.15-1.21.53-1.74.99-.99.84-1.44,1.97-1.37,3.34.15,1.9.3,3.87.38,5.84.08,1.36.68,2.43,1.82,3.34.46.38.91.68,1.44.83.15,1.97.3,3.94.53,5.84-.53.23-1.06.53-1.44.99-1.06.91-1.52,1.97-1.37,3.34.15,1.97.38,3.94.68,5.92.08,1.29.76,2.35,2.05,3.26.38.38.91.68,1.44.83.23,1.74.46,3.49.76,5.23-.68.15-1.29.53-1.74,1.06-1.06.91-1.44,1.97-1.21,3.26.23,2.05.53,4.02.91,5.99.15,1.29.91,2.35,2.2,3.26.53.38,1.06.61,1.67.83.15,1.06.38,2.12.53,3.11h0c0,.23.08.38.08.53h0c.08.76.23,1.44.3,2.2-.61.23-1.14.53-1.59.91-1.06.99-1.59,2.05-1.36,3.41.23,1.97.45,3.94.83,5.92.15,1.29.91,2.28,2.28,3.11.53.38,1.14.68,1.67.84.38,2.2.68,4.32,1.14,6.52-.68.23-1.37.61-1.9,1.06-1.14,1.06-1.52,2.2-1.29,3.49.3,1.97.68,3.94,1.06,5.92.3,1.29,1.21,2.27,2.65,3.11.53.3,1.06.53,1.74.68.46,1.97.84,3.87,1.29,5.84-.61.23-1.06.61-1.52,1.06-1.14,1.06-1.52,2.28-1.14,3.64.46,1.97.91,3.94,1.52,5.92.3,1.29,1.29,2.27,2.81,3.03.53.3,1.14.53,1.82.68v.08l.23,1.06,1.21,3.19v.68h.23v.3c.08.61.3,1.14.68,1.52-.61.61-.99,1.21-1.29,1.82-.76,1.14-.83,2.12-.46,2.88.68,1.29,1.36,2.65,2.2,4.02.53.84,1.52,1.29,3.03,1.37.61-.08,1.21-.15,1.75-.23.15.15.23.3.38.53.3.53.53.99.84,1.52.38.53.68,1.14,1.06,1.67-.46.53-.91,1.06-1.37,1.67-.83,1.21-1.06,2.27-.53,3.19.91,1.29,1.75,2.58,2.65,3.87.61.76,1.67,1.06,3.19.91.08-.08.23-.08.23-.08.68-.08,1.14-.23,1.74-.38.38.68.83,1.44,1.29,2.12-.45.46-.99.99-1.36,1.59-.91,1.21-1.06,2.28-.53,3.19.76,1.29,1.67,2.65,2.58,3.87.68.83,1.82,1.14,3.49.91.68-.15,1.29-.23,1.82-.45l4.93,4.85h.07c-1.06,1.74-1.06,3.03,0,3.87,1.14.76,2.35,1.67,3.72,2.58.76.76,1.97.83,3.56.3.61-.23,1.21-.45,1.67-.76l3.56,2.43,5.46-.91c-3.64-2.5-5.76-3.94-6.37-4.4.3-.61.53-1.21.68-1.82.3-1.29,0-2.2-.91-2.73-.91-.46-1.97-1.14-2.96-1.97-1.06-.83-1.97-1.21-2.65-1.14-.68,0-1.44.53-2.28,1.52l-3.49-2.5c-.91-.91-1.52-1.52-1.74-1.75.38-.61.76-1.14.99-1.67.61-1.21.61-2.2,0-2.88-.83-1.14-1.67-2.28-2.5-3.49-.53-.76-1.44-1.14-2.65-1.21-.61,0-1.06.08-1.29.15-.07-.15-.07-.23-.15-.3h.08c-.08,0-.08-.08-.15-.15-.08-.08-.15-.23-.15-.3h-.15c-.15-.15-.3-.38-.38-.53-.3-.3-.53-.61-.76-.91.38-.53.68-1.14.99-1.67.61-1.21.61-2.12.08-2.88-.91-1.14-1.82-2.28-2.58-3.41-.61-.83-1.44-1.21-2.65-1.21-.61,0-1.06,0-1.37.08-.07-.23-.23-.53-.3-.76-.08,0-.08-.08-.08-.08-.61-.99-1.21-1.97-1.9-2.96.3-.46.46-.91.53-1.29.38-1.14.23-2.05-.3-2.88-.76-1.29-1.59-2.5-2.35-3.79-.53-.83-1.29-1.36-2.12-1.67-.3-.15-.61-.23-1.06-.15-.08-.15-.15-.3-.23-.46v.15c-.23,0-.15-.08,0-.15-.15-.15-.23-.3-.3-.53h-.23v-.3c-.08-.46-.08-.91-.15-1.37,0-1.06.46-2.43,1.44-4.02.84-1.21,1.14-2.35.84-3.64-.46-1.97-.99-3.94-1.44-5.84-.3-1.29-1.14-2.27-2.5-2.88-.68-.3-1.29-.46-1.97-.53-.45-1.9-.83-3.79-1.29-5.69.68-.38,1.29-.76,1.82-1.29.91-1.14,1.29-2.27,1.06-3.49-.38-1.9-.76-3.79-1.14-5.76-.23-1.29-1.06-2.2-2.35-2.96-.61-.23-1.14-.46-1.59-.53-.46-2.2-.76-4.32-1.14-6.45.61-.38,1.21-.76,1.74-1.29.99-.99,1.44-2.12,1.21-3.34-.3-1.9-.61-3.87-.91-5.76-.23-1.21-.99-2.27-2.2-3.03-.61-.38-1.21-.61-1.74-.76-.15-.61-.23-1.21-.3-1.82h0c0-.15-.08-.3-.08-.53-.23-1.06-.46-2.2-.61-3.26.61-.3,1.14-.68,1.67-1.21.91-.91,1.29-2.05,1.06-3.26-.38-1.97-.68-3.94-1.06-5.92-.23-1.29-.91-2.43-2.2-3.26-.46-.3-.99-.53-1.44-.68-.3-1.75-.61-3.57-.76-5.31.53-.23,1.06-.61,1.59-1.14.91-.91,1.29-2.05,1.14-3.26-.23-1.97-.45-3.94-.68-5.92-.23-1.29-.91-2.35-2.05-3.19-.53-.38-1.06-.68-1.59-.84-.15-1.9-.3-3.79-.53-5.69.61-.23,1.14-.61,1.67-1.06.91-.91,1.36-2.05,1.29-3.26-.15-1.97-.3-3.94-.46-5.92-.15-1.21-.68-2.27-1.74-3.19-.46-.38-.91-.61-1.37-.76-.08-2.2-.23-4.47-.3-6.6.61-.23,1.14-.53,1.59-.99.91-.91,1.44-1.97,1.37-3.26-.08-1.9-.15-3.87-.3-5.84-.08-1.29-.68-2.35-1.74-3.26-.45-.46-.99-.76-1.52-.91-.08-1.9-.15-3.79-.23-5.69.53-.3,1.06-.61,1.59-.99.99-.91,1.44-1.97,1.44-3.19-.15-1.97-.23-4.02-.3-5.92-.15-1.29-.76-2.43-1.74-3.41-1.14-.91-2.43-1.44-3.79-1.44-1.52-.08-2.73.3-3.72,1.21-.99.83-1.44,1.97-1.37,3.19Z"/>
    <path d="M33.68,43.08c-.99.99-1.36,2.05-1.21,3.41.15,2.12.38,4.1.53,6.22.08,1.29.68,2.5,1.82,3.49.46.38.84.76,1.44.91.15,2.12.3,4.1.53,6.14-.53.23-1.06.53-1.52.91-.91.91-1.37,2.05-1.21,3.41.15,2.05.38,4.17.53,6.22.07,1.37.76,2.5,1.82,3.49.45.38.91.68,1.44.91.23,2.28.46,4.63.61,6.9-.61.15-1.14.53-1.67,1.06-.91.83-1.37,1.97-1.21,3.41.23,1.97.46,4.02.68,6.14.08,1.37.76,2.5,1.9,3.41.53.46.99.68,1.52.91.23,2.12.46,4.1.68,6.14-.46.23-.99.61-1.36.99-.99.91-1.36,2.12-1.21,3.49.3,2.05.61,4.09.91,6.14.15,1.37.99,2.5,2.2,3.41.46.45.91.68,1.52.91.23,1.82.61,3.64.91,5.54-.68.15-1.21.53-1.74,1.06-.91.91-1.29,2.12-1.06,3.41.38,2.12.76,4.25,1.14,6.3.3,1.29,1.14,2.5,2.43,3.34.61.38,1.14.68,1.67.91.45,2.05.83,4.1,1.29,6.07-.61.23-1.06.61-1.52.99-1.06.99-1.37,2.2-1.06,3.56.38,2.05.83,4.1,1.37,6.14.3,1.36,1.14,2.5,2.58,3.34.53.38,1.14.61,1.74.83.53,2.27,1.06,4.55,1.74,6.75-.68.3-1.29.68-1.82,1.21-.99,1.06-1.37,2.27-.99,3.56.53,2.05,1.14,4.17,1.67,6.22.45,1.36,1.36,2.43,2.88,3.18.61.38,1.21.61,1.9.76.53,2.05,1.14,4.1,1.74,6.14-.53.3-.99.61-1.37,1.14-.99,1.14-1.29,2.35-.91,3.72.76,2.05,1.44,4.17,2.12,6.3.46,1.29,1.52,2.35,3.11,3.11.61.3,1.21.53,1.9.76,0,.15.08.3.23.45-.15-.15-.15-.23-.23-.38l1.37,4.4c.23.84.46,1.52.68,1.97.08.23.15.45.23.76.15.61.46,1.14.99,1.59-.45.61-.76,1.21-.91,1.9-.46,1.14-.38,2.2.23,3.03.99,1.29,1.97,2.73,3.03,4.17.76.83,1.82,1.29,3.41,1.37.53-.08,1.14-.15,1.67-.23,1.14,1.37,2.35,2.65,3.56,3.94-.3.53-.53,1.06-.76,1.67-.53,1.29-.3,2.35.53,3.34,1.37,1.36,2.65,2.73,4.02,4.1.91.83,2.2,1.14,3.79.83.61-.08,1.14-.23,1.59-.38,1.52,1.29,3.03,2.65,4.55,3.87-.3.46-.46,1.14-.46,1.9-.15,1.59.23,2.65,1.21,3.34,1.44.99,3.03,1.9,4.55,2.81,1.06.38,2.12.23,3.34-.38.3-.15.61-.3.91-.46,1.37.61,2.81,1.06,4.25,1.44-.15.45-.15.99,0,1.44.46.76,1.14,1.29,2.05,1.52,1.36.38,2.73.68,4.25.84.99.08,2.05-.3,3.26-1.21.46-.38.84-.76,1.37-1.14,1.9.08,3.79.38,5.69.83.46.15.99.15,1.59-.08.53-.23.99-.53,1.37-.91.23-.46.23-.91.15-1.44-.15-.53-.53-.91-.91-1.06-1.9-.76-3.72-1.29-5.54-1.59.08-.68.15-1.29.15-1.97-.23-1.21-.76-1.97-1.67-2.12-1.59-.3-3.03-.53-4.48-.68-1.06-.15-2.12.38-3.34,1.52-.68.53-1.21,1.06-1.67,1.67-1.36-.3-2.81-.61-4.17-1.06.23-.68.38-1.44.38-2.05,0-1.37-.38-2.2-1.29-2.5-1.29-.53-2.65-1.14-4.02-1.9-.91-.46-2.05-.53-3.34,0-.53.08-.99.3-1.36.53-1.52-1.21-2.96-2.5-4.4-3.72.23-.61.38-1.21.45-1.74.08-1.29-.23-2.27-.99-2.96-1.29-1.21-2.58-2.43-3.79-3.64-.83-.83-1.82-1.29-3.03-1.29-.61,0-1.06.08-1.36.08-.99-1.37-2.05-2.65-3.26-3.94.23-.46.3-.91.23-1.37.15-1.14-.15-2.12-.83-2.96-1.14-1.37-2.2-2.65-3.26-4.02-.76-.83-1.59-1.44-2.5-1.74-.3-.15-.68-.23-1.14-.15-.08-.15-.15-.3-.3-.46,0,0,0,.08.08.15-.23-.08-.38-.08-.53-.15-.08-.38-.3-1.06-.46-1.9-.23-.68-.38-1.44-.53-2.12l1.14.08c-.3-.91-.68-1.82-.91-2.73.53-.46,1.06-.91,1.52-1.59.76-1.14.99-2.43.53-3.72-.68-2.05-1.29-4.1-1.97-6.14-.46-1.29-1.37-2.35-2.81-2.96-.68-.38-1.37-.53-2.05-.61-.53-1.97-1.14-3.94-1.75-5.92.61-.38,1.14-.83,1.59-1.36.91-1.14,1.21-2.35.83-3.64-.53-1.97-1.14-3.94-1.67-5.99-.38-1.29-1.21-2.35-2.66-3.11-.61-.23-1.14-.46-1.67-.53-.61-2.28-1.14-4.55-1.74-6.83.61-.3,1.21-.76,1.67-1.29.91-1.06,1.21-2.2.91-3.41-.46-2.05-.99-4.1-1.44-6.07-.3-1.29-1.14-2.43-2.5-3.19-.68-.38-1.21-.68-1.82-.83-.46-1.97-.91-3.87-1.29-5.92.61-.23,1.14-.61,1.59-1.14.83-1.06,1.21-2.2.99-3.49-.45-2.05-.91-4.1-1.29-6.22-.3-1.37-1.06-2.43-2.43-3.34-.46-.38-.99-.61-1.44-.76-.38-1.82-.68-3.64-.99-5.46.61-.3,1.06-.76,1.59-1.21.91-.99,1.21-2.2.99-3.49-.38-2.05-.68-4.1-.99-6.14-.23-1.37-.91-2.43-2.05-3.34-.61-.38-1.14-.68-1.67-.91-.23-1.97-.53-3.94-.76-5.92.61-.23,1.14-.61,1.59-1.14.91-.91,1.29-2.05,1.14-3.41-.23-1.97-.46-4.02-.68-6.07-.15-1.29-.84-2.5-1.9-3.41-.46-.38-.91-.61-1.37-.83-.15-2.28-.45-4.55-.61-6.83.53-.23,1.14-.53,1.59-1.06.91-.99,1.29-2.05,1.21-3.34-.15-2.05-.3-4.09-.53-6.14-.15-1.37-.76-2.5-1.9-3.41-.46-.46-.99-.76-1.52-.99-.15-1.97-.3-4.02-.53-5.99.61-.23,1.14-.61,1.59-.99.91-.91,1.37-2.05,1.37-3.26-.23-2.12-.46-4.17-.61-6.22-.15-1.44-.83-2.58-1.9-3.56-1.14-.99-2.43-1.52-3.87-1.52-1.52-.08-2.73.3-3.64,1.21Z"/>
    <path d="M201.3,43.38c-.08,1.97-.15,3.94-.23,5.99-.15,1.21-.68,2.35-1.75,3.34-.38.38-.83.68-1.37.91-.08,1.97-.15,3.87-.3,5.84.53.23.99.53,1.52.91.99.83,1.44,1.9,1.37,3.18-.08,1.97-.15,4.02-.23,5.99-.15,1.21-.68,2.35-1.74,3.34-.38.38-.91.61-1.44.83-.08,2.2-.15,4.47-.38,6.6.76.15,1.29.53,1.74.99.99.84,1.44,1.97,1.37,3.34-.08,1.9-.23,3.87-.38,5.84-.08,1.36-.68,2.43-1.82,3.34-.46.38-.91.68-1.44.83-.15,1.97-.3,3.94-.46,5.84.53.23.99.53,1.37.99,1.06.91,1.52,1.97,1.44,3.34-.23,1.97-.38,3.94-.68,5.92-.15,1.29-.83,2.35-2.05,3.26-.45.38-.99.68-1.52.83-.23,1.74-.46,3.49-.68,5.23.68.15,1.21.53,1.74,1.06.99.91,1.37,1.97,1.21,3.26-.3,2.05-.61,4.02-.99,5.99-.15,1.29-.91,2.35-2.2,3.26-.53.38-1.06.61-1.59.83-.23,1.06-.38,2.12-.61,3.11h.08c-.08.23-.08.38-.15.53h0c-.08.76-.15,1.44-.3,2.2.61.23,1.14.53,1.67.91,1.06.99,1.52,2.05,1.36,3.41-.23,1.97-.53,3.94-.83,5.92-.15,1.29-.91,2.28-2.35,3.11-.53.38-1.06.68-1.67.84-.3,2.2-.68,4.32-1.06,6.52.68.23,1.29.61,1.9,1.06,1.06,1.06,1.52,2.2,1.29,3.49-.38,1.97-.68,3.94-1.14,5.92-.3,1.29-1.14,2.27-2.65,3.11-.46.3-1.06.53-1.75.68-.38,1.97-.83,3.87-1.29,5.84.61.23,1.14.61,1.59,1.06,1.06,1.06,1.44,2.28,1.14,3.64-.46,1.97-.99,3.94-1.52,5.92-.38,1.29-1.29,2.27-2.81,3.03-.61.3-1.21.53-1.82.68,0,0,0,.08-.08.08l-.23,1.06-1.14,3.19c0,.23,0,.45-.08.68h-.23v.3c0,.61-.23,1.14-.61,1.52.53.61.99,1.21,1.29,1.82.68,1.14.83,2.12.38,2.88-.68,1.29-1.37,2.65-2.12,4.02-.53.84-1.52,1.29-3.03,1.37-.61-.08-1.21-.15-1.74-.23-.15.15-.3.3-.46.53-.23.53-.53.99-.83,1.52-.3.53-.68,1.14-1.06,1.67.46.53.91,1.06,1.37,1.67.91,1.21,1.06,2.27.53,3.19-.83,1.29-1.67,2.58-2.65,3.87-.61.76-1.67,1.06-3.19.91-.08-.08-.15-.08-.23-.08-.61-.08-1.14-.23-1.67-.38-.46.68-.83,1.44-1.29,2.12.45.46.91.99,1.36,1.59.91,1.21,1.06,2.28.53,3.19-.83,1.29-1.74,2.65-2.65,3.87-.68.83-1.82,1.14-3.49.91-.61-.15-1.21-.23-1.82-.45l-4.86,4.85h-.15c1.06,1.74,1.06,3.03,0,3.87-1.14.76-2.35,1.67-3.64,2.58-.83.76-2.05.83-3.64.3-.61-.23-1.14-.45-1.67-.76l-3.56,2.43-5.38-.91c3.64-2.5,5.76-3.94,6.3-4.4-.3-.61-.46-1.21-.68-1.82-.23-1.29.08-2.2.99-2.73.91-.46,1.9-1.14,2.96-1.97.99-.83,1.9-1.21,2.58-1.14.76,0,1.52.53,2.28,1.52l3.56-2.5c.91-.91,1.44-1.52,1.67-1.75-.38-.61-.68-1.14-.99-1.67-.53-1.21-.61-2.2,0-2.88.91-1.14,1.75-2.28,2.5-3.49.61-.76,1.44-1.14,2.65-1.21.61,0,1.06.08,1.37.15,0-.15.08-.23.08-.3h-.08c.08,0,.15-.08.15-.15.08-.08.15-.23.15-.3h.15c.15-.15.3-.38.46-.53.23-.3.46-.61.76-.91-.46-.53-.76-1.14-1.06-1.67-.53-1.21-.53-2.12,0-2.88.91-1.14,1.74-2.28,2.5-3.41.61-.83,1.52-1.21,2.65-1.21.61,0,1.06,0,1.36.08.15-.23.23-.53.38-.76v-.08c.61-.99,1.29-1.97,1.97-2.96-.3-.46-.53-.91-.53-1.29-.38-1.14-.3-2.05.23-2.88.83-1.29,1.59-2.5,2.43-3.79.53-.83,1.21-1.36,2.12-1.67.23-.15.61-.23,1.06-.15,0-.15.08-.3.23-.46v.15c.15,0,.15-.08,0-.15.08-.15.15-.3.23-.53h.3v-.3c0-.46.08-.91.08-1.37,0-1.06-.46-2.43-1.37-4.02-.91-1.21-1.21-2.35-.91-3.64.53-1.97.99-3.94,1.44-5.84.3-1.29,1.21-2.27,2.58-2.88.61-.3,1.29-.46,1.97-.53.38-1.9.83-3.79,1.21-5.69-.68-.38-1.21-.76-1.75-1.29-.99-1.14-1.36-2.27-1.14-3.49.46-1.9.76-3.79,1.14-5.76.3-1.29,1.06-2.2,2.43-2.96.53-.23,1.06-.46,1.59-.53.38-2.2.76-4.32,1.14-6.45-.68-.38-1.29-.76-1.82-1.29-.99-.99-1.37-2.12-1.21-3.34.38-1.9.68-3.87.91-5.76.23-1.21.99-2.27,2.2-3.03.68-.38,1.29-.61,1.82-.76.08-.61.15-1.21.23-1.82h0c.08-.15.08-.3.15-.53.23-1.06.38-2.2.61-3.26-.61-.3-1.21-.68-1.67-1.21-.91-.91-1.29-2.05-1.14-3.26.38-1.97.76-3.94,1.06-5.92.23-1.29.99-2.43,2.28-3.26.45-.3.91-.53,1.44-.68.3-1.75.53-3.57.76-5.31-.61-.23-1.14-.61-1.59-1.14-.91-.91-1.37-2.05-1.21-3.26.3-1.97.53-3.94.76-5.92.15-1.29.83-2.35,1.97-3.19.53-.38,1.06-.68,1.59-.84.15-1.9.38-3.79.53-5.69-.61-.23-1.14-.61-1.59-1.06-.99-.91-1.44-2.05-1.37-3.26.23-1.97.38-3.94.53-5.92.08-1.21.68-2.27,1.74-3.19.46-.38.83-.61,1.29-.76.15-2.2.23-4.47.38-6.6-.61-.23-1.14-.53-1.59-.99-.99-.91-1.44-1.97-1.44-3.26.15-1.9.23-3.87.3-5.84.08-1.29.68-2.35,1.74-3.26.45-.46.99-.76,1.52-.91.08-1.9.15-3.79.3-5.69-.61-.3-1.14-.61-1.67-.99-.91-.91-1.44-1.97-1.44-3.19.15-1.97.23-4.02.3-5.92.15-1.29.76-2.43,1.82-3.41,1.06-.91,2.35-1.44,3.79-1.44,1.52-.08,2.73.3,3.72,1.21.91.83,1.44,1.97,1.29,3.19Z"/>
    <path d="M229.74,43.08c.91.99,1.36,2.05,1.14,3.41-.15,2.12-.38,4.1-.53,6.22-.08,1.29-.68,2.5-1.82,3.49-.38.38-.83.76-1.44.91-.08,2.12-.3,4.1-.46,6.14.46.23.99.53,1.44.91.91.91,1.37,2.05,1.29,3.41-.23,2.05-.38,4.17-.61,6.22-.08,1.37-.68,2.5-1.82,3.49-.46.38-.91.68-1.37.91-.23,2.28-.46,4.63-.68,6.9.61.15,1.21.53,1.67,1.06.91.83,1.37,1.97,1.21,3.41-.23,1.97-.38,4.02-.68,6.14-.08,1.37-.76,2.5-1.9,3.41-.46.46-.91.68-1.52.91-.15,2.12-.46,4.1-.68,6.14.53.23.99.61,1.44.99.99.91,1.29,2.12,1.14,3.49-.23,2.05-.53,4.09-.83,6.14-.23,1.37-1.06,2.5-2.2,3.41-.46.45-.99.68-1.52.91-.3,1.82-.61,3.64-.99,5.54.68.15,1.29.53,1.74,1.06.99.91,1.29,2.12,1.06,3.41-.38,2.12-.68,4.25-1.14,6.3-.3,1.29-1.06,2.5-2.43,3.34-.53.38-1.14.68-1.67.91-.38,2.05-.83,4.1-1.21,6.07.53.23,1.06.61,1.52.99.99.99,1.29,2.2,1.06,3.56-.45,2.05-.91,4.1-1.37,6.14-.38,1.36-1.21,2.5-2.65,3.34-.53.38-1.14.61-1.74.83-.53,2.27-1.06,4.55-1.67,6.75.68.3,1.21.68,1.74,1.21,1.06,1.06,1.37,2.27.99,3.56-.53,2.05-1.06,4.17-1.67,6.22-.38,1.36-1.36,2.43-2.88,3.18-.53.38-1.21.61-1.82.76-.61,2.05-1.21,4.1-1.82,6.14.53.3.99.61,1.44,1.14.99,1.14,1.29,2.35.83,3.72-.68,2.05-1.37,4.17-2.12,6.3-.46,1.29-1.52,2.35-3.03,3.11-.68.3-1.29.53-1.9.76-.08.15-.15.3-.23.45.08-.15.15-.23.15-.38l-1.36,4.4c-.23.84-.46,1.52-.61,1.97-.08.23-.23.45-.23.76-.15.61-.53,1.14-.99,1.59.46.61.68,1.21.91,1.9.46,1.14.3,2.2-.3,3.03-.91,1.29-1.97,2.73-3.03,4.17-.76.83-1.82,1.29-3.34,1.37-.61-.08-1.21-.15-1.67-.23-1.21,1.37-2.35,2.65-3.56,3.94.23.53.53,1.06.76,1.67.46,1.29.3,2.35-.61,3.34-1.29,1.36-2.58,2.73-4.02,4.1-.83.83-2.12,1.14-3.72.83-.61-.08-1.14-.23-1.67-.38-1.44,1.29-2.96,2.65-4.47,3.87.23.46.38,1.14.46,1.9.15,1.59-.3,2.65-1.21,3.34-1.52.99-3.03,1.9-4.63,2.81-1.06.38-2.12.23-3.26-.38-.3-.15-.68-.3-.99-.46-1.37.61-2.73,1.06-4.25,1.44.15.45.15.99.08,1.44-.46.76-1.14,1.29-2.12,1.52-1.29.38-2.73.68-4.25.84-.91.08-2.05-.3-3.26-1.21-.38-.38-.83-.76-1.36-1.14-1.82.08-3.72.38-5.69.83-.46.15-.99.15-1.52-.08-.61-.23-1.06-.53-1.36-.91-.23-.46-.3-.91-.15-1.44.15-.53.46-.91.91-1.06,1.9-.76,3.72-1.29,5.46-1.59-.08-.68-.15-1.29-.08-1.97.23-1.21.76-1.97,1.67-2.12,1.52-.3,3.03-.53,4.48-.68.99-.15,2.12.38,3.34,1.52.61.53,1.14,1.06,1.59,1.67,1.44-.3,2.81-.61,4.17-1.06-.15-.68-.3-1.44-.3-2.05-.08-1.37.38-2.2,1.21-2.5,1.37-.53,2.73-1.14,4.02-1.9.91-.46,2.05-.53,3.41,0,.53.08.98.3,1.29.53,1.52-1.21,3.03-2.5,4.4-3.72-.15-.61-.3-1.21-.45-1.74-.08-1.29.23-2.27.99-2.96,1.37-1.21,2.58-2.43,3.79-3.64.83-.83,1.9-1.29,3.11-1.29.61,0,1.06.08,1.29.08,1.06-1.37,2.12-2.65,3.26-3.94-.15-.46-.23-.91-.23-1.37-.08-1.14.15-2.12.91-2.96,1.06-1.37,2.12-2.65,3.26-4.02.68-.83,1.52-1.44,2.43-1.74.38-.15.68-.23,1.14-.15.08-.15.15-.3.3-.46v.15c.15-.08.38-.08.46-.15.08-.38.3-1.06.46-1.9.23-.68.38-1.44.61-2.12l-1.21.08c.38-.91.68-1.82.91-2.73-.46-.46-.99-.91-1.52-1.59-.76-1.14-.91-2.43-.53-3.72.76-2.05,1.29-4.1,2.05-6.14.38-1.29,1.37-2.35,2.81-2.96.61-.38,1.37-.53,1.97-.61.53-1.97,1.21-3.94,1.82-5.92-.68-.38-1.21-.83-1.67-1.36-.91-1.14-1.14-2.35-.76-3.64.53-1.97,1.06-3.94,1.59-5.99.38-1.29,1.29-2.35,2.73-3.11.53-.23,1.14-.46,1.59-.53.61-2.28,1.21-4.55,1.74-6.83-.61-.3-1.21-.76-1.67-1.29-.91-1.06-1.14-2.2-.91-3.41.53-2.05.99-4.1,1.44-6.07.3-1.29,1.21-2.43,2.5-3.19.68-.38,1.21-.68,1.9-.83.38-1.97.83-3.87,1.21-5.92-.61-.23-1.14-.61-1.59-1.14-.83-1.06-1.21-2.2-.99-3.49.46-2.05.91-4.1,1.36-6.22.23-1.37.99-2.43,2.35-3.34.46-.38.99-.61,1.44-.76.38-1.82.76-3.64,1.06-5.46-.61-.3-1.14-.76-1.59-1.21-.91-.99-1.29-2.2-1.06-3.49.38-2.05.68-4.1.99-6.14.23-1.37.91-2.43,2.12-3.34.53-.38,1.06-.68,1.59-.91.3-1.97.53-3.94.76-5.92-.53-.23-1.14-.61-1.52-1.14-.91-.91-1.29-2.05-1.21-3.41.23-1.97.46-4.02.68-6.07.15-1.29.83-2.5,1.97-3.41.38-.38.83-.61,1.29-.83.23-2.28.46-4.55.68-6.83-.61-.23-1.14-.53-1.59-1.06-.91-.99-1.37-2.05-1.29-3.34.23-2.05.38-4.09.53-6.14.15-1.37.76-2.5,1.9-3.41.46-.46.99-.76,1.59-.99.15-1.97.3-4.02.45-5.99-.61-.23-1.14-.61-1.59-.99-.91-.91-1.37-2.05-1.29-3.26.15-2.12.38-4.17.53-6.22.23-1.44.83-2.58,1.9-3.56,1.14-.99,2.5-1.52,3.87-1.52,1.59-.08,2.81.3,3.72,1.21Z"/>
    <path d="M220.94,41.03c-.38.61-.83,1.21-1.52,1.9-.45.3-.91.61-1.44.83-.23,1.97-.38,3.87-.61,5.76.53.23.99.61,1.36.98.99.84,1.37,1.9,1.29,3.19-.23,1.97-.45,3.94-.68,5.92,0,.23,0,.46-.08.61-.53.83-1.14,1.52-1.82,2.12-.38.3-.91.68-1.44.91-.23,1.9-.38,3.87-.61,5.76.53.23.99.53,1.44.91.91.83,1.36,1.9,1.21,3.26-.15,1.97-.46,3.87-.61,5.84,0,.3-.08.45-.15.68-.23.99-.83,1.9-1.74,2.65-.46.38-.99.61-1.44.84-.3,2.2-.46,4.32-.76,6.52.68.23,1.21.53,1.59.99.99.91,1.37,1.97,1.29,3.26-.23,2.05-.53,3.94-.76,5.92-.15,1.21-.84,2.35-2.05,3.26-.46.3-.91.61-1.44.76-.23,1.97-.53,3.87-.83,5.84.53.23.99.61,1.36.99.91.91,1.29,2.05,1.21,3.34-.3,1.9-.68,3.87-.99,5.84-.23,1.29-.99,2.35-2.28,3.19-.46.38-.91.68-1.52.83-.3,1.75-.61,3.49-.99,5.23.68.15,1.21.53,1.67.99.99.91,1.29,2.05.99,3.34-.38,1.97-.76,3.94-1.21,5.92-.3,1.29-1.06,2.35-2.43,3.19-.61.38-1.14.61-1.67.83-.23.99-.46,2.05-.68,3.11-.08.15-.15.3-.23.46h.08c-.15.76-.3,1.44-.53,2.2.68.23,1.14.53,1.67.99.99.91,1.36,2.05,1.14,3.34-.3,1.97-.68,3.87-1.14,5.84-.23,1.29-1.06,2.28-2.5,3.11-.53.38-1.14.61-1.67.76-.53,2.2-.99,4.32-1.52,6.45.68.23,1.29.61,1.82,1.14,1.06,1.06,1.44,2.12,1.06,3.41-.38,1.97-.83,3.94-1.37,5.92-.38,1.21-1.29,2.2-2.81,2.96-.53.3-1.14.53-1.82.76-.46,1.9-1.06,3.79-1.59,5.76.53.23,1.06.61,1.52,1.06.99,1.06,1.29,2.27.91,3.64-.53,1.9-1.21,3.87-1.9,5.84-.38,1.29-1.37,2.28-2.96,2.96-.61.3-1.21.53-1.82.61v.15l-.3.99h-.08l-1.36,3.11c0,.3,0,.53-.08.76h-.23v.3c-.08.53-.3,1.06-.76,1.52.61.53.91,1.14,1.29,1.82.61,1.06.68,2.05.23,2.88-.76,1.21-1.59,2.5-2.43,3.87-.53.83-1.59,1.29-3.11,1.29-.61-.08-1.21-.15-1.74-.23-.15.23-.23.38-.38.53-.3.53-.61.99-.99,1.52-.38.53-.76,1.14-1.14,1.67.45.46.91.99,1.29,1.59.76,1.21.91,2.28.3,3.19-.91,1.29-1.82,2.58-2.81,3.87-.68.68-1.75.99-3.26.76h-.3c-.53-.15-1.14-.23-1.59-.38-.45.68-.91,1.37-1.44,2.05.46.45.91,1.06,1.29,1.59.83,1.21.99,2.28.38,3.19-.91,1.29-1.9,2.58-2.88,3.79-.68.83-1.9,1.14-3.56.83-.53-.15-1.14-.3-1.74-.46h0l-.76.68h.08c.38,1.14.08,1.97-.68,2.58-1.06.76-2.28,1.59-3.49,2.43,0,.15.08.23.08.3h-.46c-.83.61-1.97.61-3.49.15-.23-.08-.46-.15-.61-.23h-1.74l-2.96,1.9-5.38-.91c.68-.46,1.29-.83,1.9-1.21l.08-1.67c.15-.38.53-.68.91-.83.99-.53,1.97-1.21,3.11-1.97h0c0-.15-.08-.38-.15-.46-.08-.76-.08-1.29.15-1.82l-.08,1.74h.83c.76-.46,1.37-.61,1.9-.53.46,0,.83.23,1.29.53h2.35l2.27-1.44c.91-.91,1.52-1.44,1.75-1.74-.38-.53-.68-1.14-.91-1.67-.53-1.21-.46-2.12.08-2.81.99-1.14,1.97-2.27,2.81-3.41.61-.76,1.52-1.14,2.73-1.14.61,0,1.06,0,1.29.08.08-.08.15-.15.15-.23h-.08c.08-.08.08-.15.15-.23.08-.08.15-.23.15-.3h.15c.15-.15.3-.3.46-.45.23-.3.53-.61.83-.91-.38-.53-.68-1.14-.99-1.67-.46-1.21-.46-2.12.15-2.81.99-1.14,1.9-2.28,2.73-3.41.68-.83,1.52-1.21,2.73-1.14.61-.08,1.06,0,1.36.08.08-.3.3-.53.38-.76v-.08c.76-.99,1.44-1.9,2.12-2.88-.23-.46-.46-.91-.46-1.29-.3-1.14-.15-2.05.38-2.81.91-1.29,1.82-2.58,2.65-3.79.61-.83,1.29-1.36,2.2-1.67.3-.15.68-.15,1.14-.08,0-.15.08-.3.15-.46h0c.08,0,.08.08.08.15q.15-.08-.08-.15c.15-.15.3-.3.38-.53h.23c0-.08,0-.23.08-.3,0-.46.08-.91.15-1.37.08-1.06-.3-2.35-1.14-4.02-.83-1.14-1.06-2.35-.76-3.56.68-1.97,1.29-3.87,1.82-5.84.38-1.21,1.29-2.2,2.65-2.81.68-.3,1.36-.46,2.05-.46.53-1.9,1.06-3.79,1.59-5.61-.68-.38-1.21-.83-1.74-1.37-.91-1.14-1.21-2.28-.91-3.49.53-1.9.99-3.79,1.52-5.69.3-1.21,1.14-2.2,2.5-2.88.61-.23,1.14-.46,1.59-.53.61-2.12,1.06-4.25,1.52-6.37-.61-.38-1.21-.76-1.67-1.29-.99-.99-1.29-2.12-1.06-3.34.45-1.9.83-3.79,1.21-5.69.3-1.21,1.14-2.2,2.43-3.03.61-.3,1.21-.53,1.74-.68.23-.61.38-1.21.38-1.82h0c.08-.15.15-.3.23-.45h0c.23-1.14.53-2.2.76-3.34-.61-.3-1.14-.68-1.59-1.14-.91-.99-1.14-2.12-.91-3.34.46-1.97.91-3.87,1.37-5.84.3-1.29,1.14-2.35,2.43-3.19.45-.3.99-.53,1.52-.68.38-1.75.76-3.41,1.06-5.16-.61-.38-1.06-.68-1.52-1.21-.91-.99-1.21-2.05-1.06-3.26.38-1.97.76-3.94,1.14-5.92.23-1.21.91-2.27,2.12-3.11.53-.38,1.06-.61,1.59-.83.3-1.82.61-3.72.83-5.61-.53-.23-1.06-.61-1.52-1.06-.83-.91-1.21-2.05-1.14-3.26.3-1.97.53-3.87.76-5.77.23-1.29.91-2.35,2.05-3.26.46-.3.91-.53,1.29-.68.3-2.2.46-4.4.76-6.6-.61-.23-1.06-.53-1.52-.99-.76-.76-1.14-1.59-1.29-2.5v-.68c.23-1.97.45-3.87.68-5.76.15-1.37.83-2.43,1.9-3.34.53-.38,1.06-.68,1.59-.83.15-1.9.38-3.79.61-5.69-.61-.23-1.14-.61-1.59-.99-.68-.61-1.06-1.29-1.21-2.2v-.61c.15-1.97.46-3.94.68-5.84.15-1.29.76-2.43,1.9-3.26.53-.38.99-.76,1.59-.91.15-1.9.38-3.79.53-5.69-.53-.23-1.06-.53-1.52-.91-.68-.68-1.14-1.36-1.21-2.2l10.24.23Z"/>
    <path d="M166.79,112.48c-.99-.91-1.44-2.05-1.29-3.26.23-1.9.38-3.79.53-5.76.15-1.21.76-2.28,1.9-3.11.46-.38.99-.61,1.52-.83.15-1.82.23-3.72.38-5.54-.68-.23-1.14-.61-1.67-.99-.99-.99-1.44-2.05-1.44-3.26.08-1.9.23-3.79.3-5.69.08-1.29.61-2.35,1.67-3.19.38-.38.84-.61,1.29-.76,0-2.2,0-4.32.08-6.45-.61-.23-1.06-.53-1.59-.99-.99-.84-1.52-1.9-1.52-3.11,0-1.9.08-3.79.08-5.76.08-1.21.61-2.28,1.59-3.19.53-.38.99-.76,1.52-.91.08-1.9.08-3.72.08-5.61-.61-.15-1.14-.53-1.67-.91-.99-.84-1.44-1.9-1.52-3.11.08-1.97.08-3.87.08-5.76.15-1.37.68-2.43,1.67-3.26,1.06-.99,2.35-1.52,3.79-1.52,1.52-.08,2.73.38,3.72,1.21,1.06.83,1.52,1.9,1.52,3.11-.08,1.97-.15,3.87-.15,5.84,0,1.21-.53,2.35-1.59,3.26-.38.38-.83.68-1.29.91-.08,1.97-.08,3.87-.15,5.76.61.15,1.06.46,1.52.83,1.06.83,1.52,1.9,1.52,3.11,0,1.97-.08,3.87-.08,5.92,0,1.14-.53,2.28-1.59,3.19-.38.38-.91.61-1.36.83-.08,2.2-.08,4.32-.15,6.45.68.23,1.21.53,1.74.99.99.83,1.52,1.9,1.52,3.19-.07,1.97-.15,3.94-.23,5.84,0,1.21-.61,2.27-1.74,3.18-.38.38-.91.68-1.37.84-.08,1.9-.15,3.87-.38,5.76.61.23,1.06.53,1.52.91,1.06.91,1.52,1.97,1.52,3.26-.15,1.9-.3,3.87-.46,5.76-.15,1.29-.76,2.35-1.97,3.26-.38.3-.91.61-1.44.76-.15,1.74-.3,3.41-.53,5.16.68.15,1.21.53,1.74.99,1.06.91,1.52,1.97,1.37,3.26-.23,1.97-.46,3.87-.76,5.84-.15,1.21-.83,2.35-2.12,3.19-.53.3-1.06.61-1.59.83-.15.91-.3,1.9-.38,2.81-.15.99-.3,1.9-.46,2.88.53.23,1.06.53,1.59.91,1.06.91,1.52,1.97,1.29,3.26-.23,1.97-.53,3.87-.91,5.84-.15,1.21-.99,2.27-2.43,3.03-.45.38-.99.68-1.59.83-.46,2.12-.83,4.25-1.29,6.37.68.23,1.37.61,1.9,1.06,1.14.99,1.52,2.12,1.29,3.34-.38,1.97-.83,3.87-1.29,5.84-.3,1.21-1.21,2.28-2.65,3.03-.53.23-1.06.45-1.74.68-.46,1.9-.91,3.79-1.36,5.69.53.23,1.06.61,1.52,1.06,1.06,1.06,1.36,2.2,1.06,3.49-.46,1.97-1.06,3.87-1.67,5.84-.3,1.29-1.29,2.28-2.88,2.96-.53.3-1.14.53-1.74.68,0,0,0,.08-.08.08l-.91,3.64h-.08c-.08.23-.15.53-.23.76.53.23,1.06.61,1.52.99.99.99,1.29,2.12.99,3.41-.53,1.9-1.06,3.79-1.59,5.61-.3,1.21-1.29,2.2-2.73,2.88-.61.3-1.14.53-1.74.68-.23.76-.46,1.52-.76,2.35h.08c-.38,1.06-.83,2.2-1.21,3.34.61.3,1.21.76,1.67,1.29.91,1.14,1.21,2.28.68,3.41-.61,1.9-1.37,3.72-2.12,5.61-.46,1.14-1.52,2.05-3.11,2.66-.61.23-1.21.38-1.9.53-.23.53-.53,1.21-.91,1.97h-.08c-.61,1.14-1.21,2.35-1.82,3.49.45.3.91.76,1.21,1.29.76,1.14.83,2.35.23,3.56-1.06,1.74-2.05,3.49-3.19,5.31-.61,1.14-1.82,1.9-3.56,2.28-.61.23-1.29.3-1.9.38,0,0-.08,0-.08.08l-1.82,3.26-4.02-.68q.08-.08.08-.15c.38-.53.68-1.14.91-1.75l-1.14-.15c.46-.76.99-1.59,1.37-2.35-.46-.46-.91-.99-1.29-1.67-.53-1.21-.53-2.43.08-3.56,1.06-1.75,2.05-3.49,3.03-5.23.68-1.14,1.74-1.9,3.26-2.2.76-.15,1.44-.23,2.05-.15.46-.76.83-1.44,1.21-2.12.53-.91,1.06-1.9,1.44-2.81-.53-.45-1.06-.99-1.52-1.52-.76-1.21-.91-2.35-.53-3.41.76-1.82,1.44-3.64,2.12-5.46.46-1.14,1.44-2.05,2.88-2.5.61-.23,1.21-.3,1.74-.38.3-.83.61-1.74.91-2.58h0c.3-.99.68-1.97.91-2.96-.53-.38-1.06-.83-1.52-1.29-.91-1.06-1.21-2.2-.91-3.34.61-1.9,1.14-3.72,1.67-5.54.38-1.14,1.29-2.12,2.58-2.73.76-.3,1.29-.53,1.9-.61.23-.68.38-1.37.53-1.97h0c.3-.83.53-1.74.76-2.58-.61-.38-1.14-.84-1.67-1.44-.83-1.14-1.14-2.28-.83-3.49.53-1.97,1.06-3.87,1.59-5.76.3-1.21,1.14-2.2,2.58-2.81.61-.3,1.29-.46,1.97-.53.45-1.82.91-3.64,1.36-5.54-.68-.3-1.29-.76-1.74-1.29-.99-1.06-1.29-2.2-1.06-3.41.45-1.82.83-3.72,1.21-5.61.3-1.21,1.06-2.2,2.43-2.88.61-.23,1.14-.46,1.67-.53.46-2.12.76-4.25,1.21-6.3-.68-.38-1.21-.76-1.74-1.21-.99-.99-1.37-2.12-1.21-3.26.38-1.9.76-3.79,1.06-5.69.23-1.21.99-2.2,2.28-2.96.61-.38,1.21-.61,1.74-.76.23-.83.3-1.67.46-2.5.15-.99.3-2.05.45-3.03-.61-.23-1.21-.61-1.67-1.14-.99-.91-1.37-1.97-1.29-3.19.3-1.97.61-3.87.91-5.84.15-1.21.83-2.27,2.12-3.11.46-.3.91-.61,1.44-.76.15-1.67.38-3.41.61-5.08-.61-.3-1.21-.68-1.67-1.14Z"/>
    <path d="M124.62,32.61c-.91-.68-2.12-1.06-3.49-.99h-.76c-1.37,0-2.5.3-3.49,1.06-.91.61-1.44,1.52-1.44,2.5-.08,2.12-.08,4.25,0,6.37,0,.99.53,1.74,1.44,2.5.53.38,1.06.61,1.59.84v4.78c-.53.08-1.06.38-1.59.83-.91.53-1.44,1.37-1.52,2.43,0,2.12,0,4.25.08,6.37,0,.91.53,1.82,1.44,2.58.61.38,1.14.53,1.67.76v4.78c-.53.15-1.06.38-1.67.76-.91.61-1.44,1.52-1.52,2.5.08,2.2.08,4.25,0,6.37.08.99.61,1.82,1.59,2.58.53.23,1.06.53,1.59.84v4.7c-.46.23-1.06.45-1.59.76-1.06.61-1.52,1.44-1.52,2.5-.08,2.12-.08,4.25,0,6.45,0,.83.46,1.67,1.52,2.5.53.3,1.06.61,1.67.76v4.78c-.61.15-1.14.46-1.67.84-1.06.53-1.52,1.37-1.52,2.43-.08,2.12-.08,4.25-.08,6.45.08.91.61,1.74,1.59,2.43.61.38,1.14.68,1.67.91v4.78c-.53.15-1.06.46-1.67.68-.99.68-1.52,1.52-1.59,2.58,0,2.05,0,4.17.08,6.37,0,.91.53,1.75,1.52,2.5.61.3,1.14.61,1.74.83v5.16c-.53.23-1.14.46-1.74.76-.99.68-1.52,1.52-1.52,2.5v6.45c.08.91.61,1.74,1.59,2.5.61.3,1.21.61,1.75.84.08,1.59.08,3.18.15,4.78-.61.15-1.21.45-1.74.76-1.14.68-1.67,1.52-1.67,2.5.08,2.2.15,4.32.23,6.45,0,.99.53,1.82,1.67,2.58.61.3,1.21.61,1.74.76.15,1.67.15,3.26.23,4.85-.61.15-1.21.38-1.82.76-1.06.61-1.59,1.52-1.52,2.58,0,2.12.08,4.25.15,6.52,0,.99.61,1.74,1.82,2.43.61.38,1.21.61,1.82.83.08,1.59.15,3.19.23,4.78-.61.23-1.21.46-1.82.83-1.06.68-1.59,1.52-1.59,2.58.15,2.2.23,4.4.3,6.52.08.91.68,1.75,1.9,2.5.61.3,1.21.53,1.9.68.08,1.59.15,3.19.3,4.85-.68.15-1.29.45-1.9.83-1.06.68-1.59,1.59-1.59,2.65.15,2.12.3,4.25.38,6.45.08.91.76,1.75,1.97,2.43.61.38,1.29.61,1.9.68.15,1.59.23,3.19.3,4.85-.53.23-1.21.46-1.82.91-1.14.68-1.67,1.52-1.59,2.58.15,2.12.3,4.25.46,6.37.08,1.06.68,1.82,1.9,2.5.68.38,1.37.61,1.97.68.15,2.2.3,4.4.46,6.67.08.38.3.76.68.99.46.15.76.3.91.46.3-.23.76-.46,1.29-.83.46-.38.68-.76.61-1.14-.15-2.12-.3-4.32-.38-6.52.99-.3,1.82-.68,2.5-1.14,1.06-.76,1.52-1.59,1.37-2.58,0-2.12-.15-4.25-.38-6.37,0-1.06-.53-1.9-1.74-2.5-.76-.46-1.59-.68-2.58-.68-.08-1.52-.15-3.03-.3-4.55.99-.3,1.82-.68,2.5-1.14,1.06-.76,1.52-1.59,1.44-2.5-.15-2.12-.3-4.25-.38-6.37-.08-1.06-.61-1.9-1.75-2.58-.76-.45-1.67-.68-2.58-.68-.08-1.59-.15-3.03-.23-4.55.91-.3,1.74-.61,2.43-1.06,1.06-.76,1.52-1.59,1.37-2.5-.08-2.2-.23-4.32-.3-6.37-.08-1.06-.61-1.9-1.75-2.58-.68-.46-1.52-.68-2.5-.76,0-1.52-.08-3.03-.15-4.55.91-.23,1.74-.61,2.35-.99,1.06-.76,1.52-1.59,1.36-2.58-.08-2.05-.15-4.17-.23-6.3,0-1.14-.53-1.97-1.59-2.58-.76-.45-1.52-.76-2.43-.83-.08-1.52-.15-3.03-.15-4.55.91-.23,1.67-.61,2.27-.99,1.06-.68,1.52-1.44,1.44-2.43-.15-2.2-.15-4.32-.15-6.45,0-.99-.53-1.82-1.59-2.5-.61-.61-1.36-.83-2.35-.91,0-1.52,0-3.03-.08-4.55.91-.23,1.67-.53,2.35-.91.99-.76,1.44-1.52,1.36-2.43v-6.45c.08-1.06-.46-1.9-1.52-2.58-.61-.45-1.36-.76-2.28-.83v-4.93c.91-.23,1.67-.61,2.28-.99,1.06-.68,1.52-1.44,1.44-2.43v-6.37c.08-.99-.38-1.9-1.44-2.65-.61-.46-1.36-.76-2.2-.83v-4.55c.83-.15,1.59-.53,2.2-.99,1.06-.61,1.52-1.37,1.44-2.35,0-2.28,0-4.4.08-6.37,0-1.06-.46-1.97-1.52-2.58-.53-.53-1.29-.83-2.2-.91v-4.47c.91-.23,1.67-.53,2.2-.99,1.06-.76,1.52-1.59,1.44-2.43v-6.45c.08-1.06-.38-1.9-1.44-2.5-.53-.45-1.29-.83-2.12-.91v-4.55c.83-.15,1.59-.38,2.12-.91,1.06-.68,1.52-1.52,1.44-2.5v-6.37c.08-.99-.38-1.9-1.44-2.5-.61-.53-1.29-.84-2.12-.91v-4.55c.91-.15,1.59-.46,2.12-.83,1.06-.76,1.52-1.67,1.52-2.58,0-2.12,0-4.25-.08-6.37.08-1.06-.38-1.9-1.44-2.5-.53-.53-1.21-.83-2.05-.99v-4.47c.84-.15,1.52-.53,2.05-.91,1.06-.76,1.52-1.52,1.52-2.5-.08-2.12-.08-4.25,0-6.37,0-.99-.46-1.9-1.52-2.58Z"/>
    <path d="M138.72,32.61c.91-.68,2.12-1.06,3.49-.99h.76c1.36,0,2.5.3,3.49,1.06.91.61,1.44,1.52,1.44,2.5.08,2.12.08,4.25,0,6.37,0,.99-.53,1.74-1.44,2.5-.53.38-1.06.61-1.59.84v4.78c.53.08,1.06.38,1.59.83.91.53,1.44,1.37,1.52,2.43,0,2.12,0,4.25-.08,6.37,0,.91-.53,1.82-1.44,2.58-.61.38-1.14.53-1.67.76v4.78c.53.15,1.06.38,1.67.76.91.61,1.44,1.52,1.52,2.5-.08,2.2-.08,4.25,0,6.37-.08.99-.61,1.82-1.59,2.58-.53.23-1.06.53-1.59.84v4.7c.46.23,1.06.45,1.59.76,1.06.61,1.52,1.44,1.52,2.5.08,2.12.08,4.25,0,6.45,0,.83-.46,1.67-1.52,2.5-.53.3-1.06.61-1.67.76v4.78c.61.15,1.14.46,1.67.84,1.06.53,1.52,1.37,1.52,2.43.08,2.12.08,4.25.08,6.45-.08.91-.61,1.74-1.59,2.43-.61.38-1.14.68-1.67.91v4.78c.53.15,1.06.46,1.67.68.99.68,1.52,1.52,1.59,2.58,0,2.05,0,4.17-.08,6.37,0,.91-.53,1.75-1.52,2.5-.61.3-1.14.61-1.75.83v5.16c.53.23,1.14.46,1.75.76.99.68,1.52,1.52,1.52,2.5v6.45c-.08.91-.61,1.74-1.59,2.5-.61.3-1.21.61-1.74.84-.08,1.59-.08,3.18-.15,4.78.61.15,1.21.45,1.74.76,1.14.68,1.67,1.52,1.59,2.5,0,2.2-.08,4.32-.15,6.45,0,.99-.53,1.82-1.67,2.58-.61.3-1.21.61-1.75.76-.15,1.67-.15,3.26-.23,4.85.61.15,1.21.38,1.82.76,1.06.61,1.59,1.52,1.52,2.58,0,2.12-.08,4.25-.15,6.52,0,.99-.61,1.74-1.82,2.43-.61.38-1.21.61-1.82.83-.08,1.59-.15,3.19-.23,4.78.61.23,1.21.46,1.82.83,1.06.68,1.59,1.52,1.59,2.58-.15,2.2-.23,4.4-.3,6.52-.08.91-.68,1.75-1.9,2.5-.61.3-1.21.53-1.9.68-.08,1.59-.15,3.19-.3,4.85.68.15,1.29.45,1.9.83,1.06.68,1.59,1.59,1.59,2.65-.15,2.12-.3,4.25-.38,6.45-.08.91-.76,1.75-1.97,2.43-.61.38-1.29.61-1.9.68-.15,1.59-.23,3.19-.3,4.85.53.23,1.21.46,1.82.91,1.14.68,1.67,1.52,1.59,2.58-.15,2.12-.3,4.25-.46,6.37-.08,1.06-.68,1.82-1.9,2.5-.68.38-1.37.61-1.97.68-.15,2.2-.3,4.4-.46,6.67-.08.38-.3.76-.68.99-.46.15-.76.3-.91.46-.3-.23-.76-.46-1.29-.83-.46-.38-.68-.76-.61-1.14.15-2.12.3-4.32.38-6.52-.99-.3-1.82-.68-2.5-1.14-1.06-.76-1.52-1.59-1.36-2.58,0-2.12.15-4.25.38-6.37,0-1.06.53-1.9,1.74-2.5.76-.46,1.59-.68,2.58-.68.08-1.52.15-3.03.3-4.55-.99-.3-1.82-.68-2.5-1.14-1.06-.76-1.52-1.59-1.44-2.5.15-2.12.3-4.25.38-6.37.08-1.06.61-1.9,1.74-2.58.76-.45,1.67-.68,2.58-.68.08-1.59.15-3.03.23-4.55-.91-.3-1.75-.61-2.43-1.06-1.06-.76-1.52-1.59-1.37-2.5.08-2.2.23-4.32.3-6.37.08-1.06.61-1.9,1.74-2.58.68-.46,1.52-.68,2.5-.76,0-1.52.08-3.03.15-4.55-.91-.23-1.75-.61-2.35-.99-1.06-.76-1.52-1.59-1.37-2.58.08-2.05.15-4.17.23-6.3,0-1.14.53-1.97,1.59-2.58.76-.45,1.52-.76,2.43-.83.08-1.52.15-3.03.15-4.55-.91-.23-1.67-.61-2.28-.99-1.06-.68-1.52-1.44-1.44-2.43.15-2.2.15-4.32.15-6.45,0-.99.53-1.82,1.59-2.5.61-.61,1.37-.83,2.35-.91,0-1.52,0-3.03.08-4.55-.91-.23-1.67-.53-2.35-.91-.99-.76-1.44-1.52-1.37-2.43v-6.45c-.08-1.06.46-1.9,1.52-2.58.61-.45,1.37-.76,2.28-.83v-4.93c-.91-.23-1.67-.61-2.28-.99-1.06-.68-1.52-1.44-1.44-2.43v-6.37c-.08-.99.38-1.9,1.44-2.65.61-.46,1.37-.76,2.2-.83v-4.55c-.83-.15-1.59-.53-2.2-.99-1.06-.61-1.52-1.37-1.44-2.35,0-2.28,0-4.4-.08-6.37,0-1.06.46-1.97,1.52-2.58.53-.53,1.29-.83,2.2-.91v-4.47c-.91-.23-1.67-.53-2.2-.99-1.06-.76-1.52-1.59-1.44-2.43v-6.45c-.08-1.06.38-1.9,1.44-2.5.53-.45,1.29-.83,2.12-.91v-4.55c-.83-.15-1.59-.38-2.12-.91-1.06-.68-1.52-1.52-1.44-2.5v-6.37c-.08-.99.38-1.9,1.44-2.5.61-.53,1.29-.84,2.12-.91v-4.55c-.91-.15-1.59-.46-2.12-.83-1.06-.76-1.52-1.67-1.52-2.58,0-2.12,0-4.25.08-6.37-.08-1.06.38-1.9,1.44-2.5.53-.53,1.21-.83,2.05-.99v-4.47c-.83-.15-1.52-.53-2.05-.91-1.06-.76-1.52-1.52-1.52-2.5.08-2.12.08-4.25,0-6.37,0-.99.46-1.9,1.52-2.58Z"/>
  </g>
  <path d="M151.39.23c-3.79-.08-7.58-.15-11.38-.15h-.76c-3.56-.08-7.13-.08-10.69-.08-22.91.08-45.81.83-68.72,2.2-10.16.61-20.1,2.12-29.81,4.63-1.59.38-3.11.76-4.7,1.21,0,7.43,0,14.87.08,22.37v5.01c.08,3.41.08,6.83.08,10.24v.68c.15.3.38.53.76.84,1.21-.3,2.5-.53,3.79-.76,9.71-1.9,19.64-3.19,29.81-3.87,22.91-1.52,45.81-2.58,68.72-3.18,3.56-.08,7.13-.15,10.69-.23h.76c3.79-.15,7.58-.15,11.38-.23,6.29-.08,12.59-.08,18.96-.15,4.78,0,9.63,0,14.49.08,2.28,0,4.55.08,6.9.3,11,.61,22,1.37,32.99,2.28,1.59.08,3.26.38,4.85.61,3.34.38,6.07,1.44,8.27,3.19l-.08-32.54c-2.12-2.58-4.85-4.25-8.19-5.01-1.59-.46-3.26-.84-4.85-1.14-11-1.74-22-3.26-32.99-4.55-2.35-.38-4.63-.61-6.9-.68-4.86-.23-9.71-.46-14.49-.61-6.37-.23-12.67-.38-18.96-.46Z"/>
</svg>